<svg xmlns="http://www.w3.org/2000/svg" viewBox="0 0 309.45 108.94"><g id="a8339046-75fd-4f1c-922a-ef933a26f439" data-name="Layer 2"><g id="e483938b-f097-43e3-9df4-9266096bebb3" data-name="Layer 1"><text transform="translate(112.77 61.76)" style="font-size:60px;fill:#cc234b;font-family:GLEreklesStamba-Regular, GL Erekles Stamba">მარწ<tspan x="104.64" y="0" style="letter-spacing:0.019986979166666665em">ყ</tspan><tspan x="135.3" y="0">ვი </tspan></text><path d="M35.85,45.3c-5.41,2-11.06,4.22-14.83,8.6-4.81,5.56-5.6,13.73-3.85,20.87s5.71,13.5,9.61,19.73c2.06,3.31,4.18,6.66,7.13,9.2a38.57,38.57,0,0,0,5.32,3.61,5.77,5.77,0,0,0,3.38,1.15,5.79,5.79,0,0,0,3.29-2.09c4.77-4.9,9.7-10.05,11.79-16.56a42.64,42.64,0,0,0,1.52-8.63,98,98,0,0,0,.68-10.27,56.1,56.1,0,0,0-3-18.12,8.39,8.39,0,0,0-2.09-3.7,9,9,0,0,0-3.34-1.59c-5.27-1.65-10.73-3.32-16.2-2.59" style="fill:#ce010f"/><path d="M35.51,44.94c-5,1.87-10.18,3.87-14.07,7.64A20.59,20.59,0,0,0,15.55,66c-.86,11.6,6,22.14,12.08,31.44A31.06,31.06,0,0,0,33.14,104a29.23,29.23,0,0,0,3.46,2.5,19.44,19.44,0,0,0,3.86,2.14c2.46.84,4.43-.46,6.11-2.15,1.88-1.9,3.72-3.84,5.46-5.88,3.67-4.32,6.43-9.1,7.4-14.74a81.24,81.24,0,0,0,1.18-19A56.54,56.54,0,0,0,58.9,56.41c-.69-2.64-1.37-6.29-3.74-8a14.46,14.46,0,0,0-4.31-1.74c-1.74-.54-3.49-1.06-5.27-1.48a28.92,28.92,0,0,0-10.19-.77c-.83.1-1.38,1.1-.22,1a26.15,26.15,0,0,1,8.94.64,47.92,47.92,0,0,1,8.47,2.51c2.66,1.17,3.37,3.94,4.14,6.5a56.18,56.18,0,0,1,1.8,8.31,73.67,73.67,0,0,1-.14,17.93A45.38,45.38,0,0,1,57,89.47a25.91,25.91,0,0,1-3.3,6.87,49.85,49.85,0,0,1-4.76,6c-.79.86-1.6,1.71-2.42,2.56a13.92,13.92,0,0,1-3,2.78c-1.53.83-3.17-.48-4.44-1.25A36.76,36.76,0,0,1,35.4,104a26.39,26.39,0,0,1-5.24-5.77,117.65,117.65,0,0,1-8.46-14,38.45,38.45,0,0,1-4.49-14.81c-.33-5.32.88-10.94,4.34-15.12,3.69-4.47,9.37-6.58,14.63-8.56,1.09-.41.11-1-.67-.72Z" style="fill:#ce010f"/><path d="M37.87,41A68.43,68.43,0,0,0,22.3,42.54a25.42,25.42,0,0,0,9.15,1.86l-9.12,5.29c4.77.17,9.87.26,13.92-2.27l2.17,9.28a14.14,14.14,0,0,0,2-9.58,15,15,0,0,0,11.17,3.4l-7.05-5.44a18.87,18.87,0,0,0,6.35,1,6.76,6.76,0,0,0,5.42-3,23.48,23.48,0,0,1-7.84-1.16,7.21,7.21,0,0,0,4.88-3.39,29.43,29.43,0,0,1-15.31,2" style="fill:#eeeee8"/><path d="M38.42,40.15a74,74,0,0,0-16.33,1.61c-.43.09-2,1.1-.94,1.51a28.14,28.14,0,0,0,9.75,2l-.36-1.35-9.12,5.29c-.85.49-.58,1.31.36,1.35,5.27.18,10.72.14,15.38-2.67L34.8,47.8,37,57.08c.26,1.08,2.45.27,2.81-.33a15.11,15.11,0,0,0,2.06-10l-2.79,1a16.79,16.79,0,0,0,12.33,3.68c.34,0,2.34-.81,1.53-1.44l-7.06-5.45L43.63,45.9c4.68,1.3,11,2,14-2.83.35-.56-.3-.93-.8-.92A23.92,23.92,0,0,1,49.32,41l-.67,1.6a9.29,9.29,0,0,0,6-4.11c.7-1.12-1.49-.88-1.94-.71A27.91,27.91,0,0,1,38.89,39.6a2.41,2.41,0,0,0-2,.55c-.39.4-.37,1,.3,1.1a33.52,33.52,0,0,0,16.77-2.13L52,38.41a5.58,5.58,0,0,1-3.74,2.67c-.77.16-1.91,1.22-.66,1.61a25.37,25.37,0,0,0,8.16,1.19l-.8-.92c-2.09,3.34-6.42,2.15-9.55,1.29-.5-.14-3.17.67-2.22,1.41l7.06,5.44,1.53-1.43a13.83,13.83,0,0,1-10-3.14c-.68-.56-2.95-.21-2.79,1a13.86,13.86,0,0,1-1.87,9.14l2.8-.33L37.7,47c-.21-.91-1.9-.37-2.36-.09-3.72,2.24-8.28,2-12.46,1.88l.36,1.34,9.12-5.28c.84-.49.58-1.33-.36-1.35a24.87,24.87,0,0,1-8.56-1.72l-.93,1.51a67,67,0,0,1,14.81-1.43c.59,0,1.62-.19,1.9-.81s-.23-.92-.8-.93Z" style="fill:#ce010f"/><path d="M41,43.21q.47-5.25.6-10.52c0-1.74.06-3.48,0-5.22a18.45,18.45,0,0,0-.34-4.87c-.79-2.76-3.75-4.81-5.89-6.49a55.78,55.78,0,0,0-8.2-5.31c-1.13-.6-3.07,0-4.09.63-.79.44-1.74,1.35-.58,2a50.83,50.83,0,0,1,7.46,4.87c2.05,1.62,5,3.59,5.6,6.29A21.56,21.56,0,0,1,35.89,29c0,1.58,0,3.15,0,4.72-.08,3.45-.28,6.88-.59,10.31-.1,1.19,1.64,1.09,2.43,1s3.24-.7,3.34-1.82Z" style="fill:#ce010f"/><path d="M37.4,21.15c-.83-4.49.25-7.88-.58-12.36-.35-1.85-2.7-4.95-4.16-6.13S28.42,2,28.19,3.84a8.72,8.72,0,0,0-2.76-2.65,3,3,0,0,0-3.54.45c-.32.38-.57.92-1.07,1-.72.1-1.11-.87-1.78-1.16-1.38-.61-2.21,1.73-3.63,2.23-1.78.63-3.79-1.89-5.36-.85C9.37,3.29,9,4.32,8.19,4.3S7,3.31,6.28,3.11c-.93-.25-1.63.78-2.22,1.54s-2,1.27-2.33.38c-.61.6-.18,1.66.46,2.23S3.66,8.26,4,9c.69,1.64-1.17,3.9.12,5.13.68.65,1.86.47,2.59,1.07C8,16.34,6.8,18.87,8.06,20c1,.9,2.84.25,3.76,1.24s.16,3,1.26,3.79c.77.57,1.94.14,2.74.65,1.09.68.78,2.51,1.79,3.3s2.71-.21,4.14-.46c2.12-.37,4.29,1.32,6.35.68,1.36-.43,2.4-1.83,3.83-1.81.71,0,1.44.38,2.09.1a2.15,2.15,0,0,0,.91-1,36.6,36.6,0,0,0,2.44-5.09" style="fill:#eeeee8"/><path d="M38.85,20.76c-.53-3.06-.17-6.09-.26-9.17A11.93,11.93,0,0,0,38,7.52a13.57,13.57,0,0,0-1.69-2.9C35.11,3,33.74,1.36,31.6,1.23c-1.87-.12-4.45.69-4.86,2.79l2.79-.75C28.3,1.68,26.89.15,24.75,0a5.79,5.79,0,0,0-2.69.47,4.19,4.19,0,0,0-1.22.81,5.34,5.34,0,0,0-.39.44c-.09.11-.4.37-.2.3l1.14-.22c.21,0-.14-.19-.24-.29A4.16,4.16,0,0,0,20.62,1,2.45,2.45,0,0,0,19.37.56a4,4,0,0,0-2.89,1c-.36.3-.66.66-1,1a2.28,2.28,0,0,1-.53.5c.45-.22.1-.07-.16-.21a8.47,8.47,0,0,0-2.86-1,4.25,4.25,0,0,0-3,.8c-.2.15-1.09.87-1.09,1.12,1,0,1.27-.14.89-.42l-.22-.2a2.44,2.44,0,0,0-.53-.43,3.24,3.24,0,0,0-3.24,0,4.53,4.53,0,0,0-1.26,1c-.14.17-.45.42-.52.64l-.2.26c.51.2.63.15.36-.16C2.6,3.68.76,4.47.38,5a1.89,1.89,0,0,0,0,2.32c.6.9,1.91,1.29,2.21,2.39.47,1.68-1.4,3.7.25,5.12.7.6,1.7.44,2.41.94s.62,1.83.67,2.68c.13,2.25,1.46,2.66,3.44,3,2.39.38.78,3.21,2.53,4.32.82.52,2.22.13,2.87.8s.55,1.83,1.08,2.59c1.41,2,3.9.5,5.7.19,1.06-.17,2.22.4,3.23.63a6.84,6.84,0,0,0,3.48,0,7,7,0,0,0,1.61-.72,7.36,7.36,0,0,1,1.41-.91c.52-.15,1.16.14,1.75.12a4.19,4.19,0,0,0,1.86-.49,6.29,6.29,0,0,0,2.27-3c.6-1.19,1.09-2.44,1.62-3.66.27-.62-1-.65-1.25-.62a2,2,0,0,0-1.64,1c-.43,1-.82,2-1.28,2.94q-.33.7-.72,1.38a5.73,5.73,0,0,1-.43.7c-.15.21.59.18-.25,0-2-.41-3.41.72-5,1.61-.84.48-1.71.11-2.59-.13a9.34,9.34,0,0,0-3.14-.46,15.67,15.67,0,0,0-2.78.68c-1.15.29-1.29-.69-1.58-1.6A2.86,2.86,0,0,0,17,25c-.79-.45-2.15-.08-2.76-.71s-.36-1.57-.47-2.22a2.35,2.35,0,0,0-1.13-1.79,6.41,6.41,0,0,0-2.24-.51C9.29,19.6,9,19,8.88,18c-.13-1.51.07-3-1.57-3.74-.84-.36-2.08-.25-2.21-1.41A15.05,15.05,0,0,1,5.58,10a2.72,2.72,0,0,0-.77-2.28c-.59-.6-2.53-1.61-1.74-2.7L.38,5.59c.77,1.27,2.87.66,3.88.07A4.63,4.63,0,0,0,5.82,4.14c.46-.38.32-.46-.43-.22a6.4,6.4,0,0,1,.49.42,3.93,3.93,0,0,0,.64.5c1.37.75,3,0,4-1.07.14-.17.29-.34.45-.5-.6.06-.75.12-.43.17a5.34,5.34,0,0,0,1,.37,9.77,9.77,0,0,0,1.93.72,4.8,4.8,0,0,0,4.06-1.2c.21-.19,1.37-1.17,1.35-1.34-.95-.06-1.23,0-.82.26a1.38,1.38,0,0,1,.34.3,4.07,4.07,0,0,0,.82.67,2.83,2.83,0,0,0,2.21,0c.8-.28,1.06-.8,1.66-1.3.34-.28.06-.25.57-.25a2.43,2.43,0,0,1,1.21.57,10.37,10.37,0,0,1,2,2.17c.54.69,2.64.07,2.8-.75.34-1.75,2-.17,2.68.54a13.41,13.41,0,0,1,2.83,4.24c.72,1.93.58,4.28.52,6.3A34.46,34.46,0,0,0,36,21.54c.17,1,3.08.28,2.9-.78Z" style="fill:#ce010f"/><path d="M41.89,32.48c.35-1.41.68-3.28,2-4.17a11.71,11.71,0,0,1,4.63-1.55,19.77,19.77,0,0,1,10.9,1.39,4.81,4.81,0,0,0,4.1-.55c.73-.45,1.81-1.69.52-2.24a27.37,27.37,0,0,0-16.07-1.52,22.35,22.35,0,0,0-8,3c-2.27,1.55-3.19,3.8-3.84,6.38-.51,2.08,5.31,1.22,5.8-.74Z" style="fill:#ce010f"/><path d="M44.23,26.3a27.1,27.1,0,0,1,9.93-14,3.13,3.13,0,0,1,3.06-.3,3.31,3.31,0,0,0,2.45-.1c1.26-.57,2.74-1.45,3.88-.67.49.33.75.9,1.18,1.32,1.18,1.16,3.12.78,4.75.43s3.7-.41,4.53,1a6.81,6.81,0,0,0,.7,1.34c1.14,1.22,3.79-.25,4.6,1.2.33.6.08,1.39.41,2,.76,1.41,3.21.14,4.43,1.18,1,.81.49,2.45,1.17,3.51s2.06,1.15,3.13,1.71a5.27,5.27,0,0,1,2.14,2.36,4.07,4.07,0,0,1,.12,3.87c-.72,1.14-2.65,1.46-3.38.32a3.92,3.92,0,0,1-5,3.14,10.3,10.3,0,0,0-1.52-.57c-2.07-.35-3.7,2.4-5.78,2.1C73.88,36,72.93,34.88,71.76,35s-1.85,1.43-3,1.75c-1.78.51-3.26-1.6-5.09-1.84-2-.26-3.92,1.78-5.86,1.19-1.34-.41-2.21-2-3.62-2-1,0-1.94.74-2.88.44-1.17-.37-1.37-2.06-2.45-2.63-.74-.39-1.65-.15-2.45-.37a2.94,2.94,0,0,1-1.92-2.61c-.11-1.14-.59-1.73-.25-2.82" style="fill:#eeeee8"/><path d="M45.67,26.08a26.63,26.63,0,0,1,7.91-12.29A9.88,9.88,0,0,1,55,12.67c.56-.33.77-.1,1.39.06a6.1,6.1,0,0,0,3.51-.25c1.16-.41,2-1.27,2.93-.08A3.75,3.75,0,0,0,65.32,14a9.64,9.64,0,0,0,3.21-.18,5.85,5.85,0,0,1,2.93-.19c1.21.39,1.12,1.51,1.89,2.3a3.26,3.26,0,0,0,2.32.68c.64,0,1.68-.26,2.14.31.65.8,0,2,1,2.65,1.56,1.11,4-.57,4.54,1.93.2,1,.19,2.05,1,2.78s2.08.82,3,1.42a5.34,5.34,0,0,1,2.14,3.09,3.43,3.43,0,0,1,0,2.17c-.05.11-.42.68-.22.57a2,2,0,0,1-.6-.51c-.44-.55-2.69.07-2.8.75a3.21,3.21,0,0,1-1.08,2.07c-.77.63-1.4.13-2.23-.17a5.69,5.69,0,0,0-4.58.61,12.44,12.44,0,0,1-1.86,1.15c-.61.19-1.37-.49-2-.77a4.85,4.85,0,0,0-4.59.77,7.39,7.39,0,0,1-.88.71c-.38.19.1,0,.13,0a2.36,2.36,0,0,1-.59-.22c-.76-.36-1.43-.9-2.2-1.25a6.22,6.22,0,0,0-4.77.15c-.65.24-1.48.8-2.17.69s-1.49-1-2.13-1.45A3.55,3.55,0,0,0,55,33.4a4.79,4.79,0,0,0-1.25.13c-.47.09-1.05.43-1.51.21s-.92-1.33-1.34-1.83A3,3,0,0,0,48.62,31,2.42,2.42,0,0,1,46.07,29a7.37,7.37,0,0,1-.35-3.18c.19-.82-2.68-.38-2.88.45A6,6,0,0,0,43,28.9a4.29,4.29,0,0,0,1.19,2.67,3.84,3.84,0,0,0,2.47.74c1.33.07,1.59.91,2.29,1.86a2.41,2.41,0,0,0,1.81,1.09c1,.09,2.21-.66,3.08-.35s1.44,1.15,2.23,1.56a4.31,4.31,0,0,0,2.65.37A11.79,11.79,0,0,0,61.45,36a2.51,2.51,0,0,1,2.74.19c1.72,1,3.12,1.7,5.14,1a7.52,7.52,0,0,0,2.19-1.36c.7-.55.09,0,.07-.05a4.68,4.68,0,0,1,.78.38,5.65,5.65,0,0,0,1.5.62c1.83.38,3.57-.52,5.06-1.48.31-.19.73-.56,1.06-.56s1.06.49,1.48.61a6.1,6.1,0,0,0,3.06-.09c2-.52,3.9-1.86,4.24-4L86,32c1.4,1.76,4.94.7,6.07-.9,1.45-2.06,0-5.28-1.93-6.52-1-.63-2.48-.72-3.24-1.64s-.31-2.47-1.11-3.48a3.19,3.19,0,0,0-2.63-.9c-.52,0-1.27.15-1.72-.17-.61-.43-.34-1.32-.53-1.93-.77-2.44-4.1-.2-5.1-2.16a3.25,3.25,0,0,0-2.26-2.06,8.7,8.7,0,0,0-3.8.07c-1.25.24-2.59.65-3.64-.31-.54-.5-.8-1.14-1.49-1.49a3.34,3.34,0,0,0-1.79-.27,7,7,0,0,0-1.86.42c-.65.22-1.45.83-2.14.81s-1.22-.38-1.84-.42a6,6,0,0,0-2.24.28,11.48,11.48,0,0,0-4,2.75A27.48,27.48,0,0,0,42.8,26.53c-.24.76,2.62.38,2.87-.45Z" style="fill:#ce010f"/><path d="M29.53,52.29l-.48,1.16a.41.41,0,0,0-.06.3.35.35,0,0,0,.1.27.49.49,0,0,0,.26.19.68.68,0,0,0,.35.1,1.69,1.69,0,0,0,.86-.15L30.8,54a1.22,1.22,0,0,0,.32-.36l.48-1.17a.49.49,0,0,0,.06-.29.4.4,0,0,0-.1-.28.55.55,0,0,0-.26-.19.83.83,0,0,0-.35-.1,1.7,1.7,0,0,0-.86.16l-.24.14a1,1,0,0,0-.32.36Z" style="fill:#eeeee8"/><path d="M23.36,59.91A2.44,2.44,0,0,0,23.78,62" style="fill:#4c5a27"/><path d="M22.26,60a2.94,2.94,0,0,0,0,1.32,2.8,2.8,0,0,0,.55,1.2.94.94,0,0,0,.62.32,1.59,1.59,0,0,0,.86-.15,1.11,1.11,0,0,0,.55-.52.61.61,0,0,0,0-.61,3.12,3.12,0,0,1-.27-.43l.1.19a2.31,2.31,0,0,1-.24-.9v.21a2.66,2.66,0,0,1,.08-.79.58.58,0,0,0-.26-.55,1.15,1.15,0,0,0-.74-.17,1.52,1.52,0,0,0-.82.3l-.19.17a.91.91,0,0,0-.19.41Z" style="fill:#eeeee8"/><path d="M28.72,61.31a2.23,2.23,0,0,0,.71,1.4" style="fill:#4c5a27"/><path d="M27.63,61.6a2.74,2.74,0,0,0,.32.95,1.79,1.79,0,0,0,.22.34,3.41,3.41,0,0,0,.42.43.89.89,0,0,0,.34.13,1.07,1.07,0,0,0,.4,0,1.83,1.83,0,0,0,.82-.29.87.87,0,0,0,.38-.56v-.2a.55.55,0,0,0-.24-.32l0,0,.16.14a2.32,2.32,0,0,1-.49-.63l.09.17A2.35,2.35,0,0,1,29.8,61a.39.39,0,0,0-.16-.25.66.66,0,0,0-.29-.17,1.7,1.7,0,0,0-.82,0,1.53,1.53,0,0,0-.72.41l-.13.19a.62.62,0,0,0-.05.4Z" style="fill:#eeeee8"/><path d="M29.21,72.32a3.31,3.31,0,0,0,.2,1.89" style="fill:#4c5a27"/><path d="M28.13,72.49a3.63,3.63,0,0,0,.19,2c.06.15.26.19.4.21a2.17,2.17,0,0,0,.8-.09,2.22,2.22,0,0,0,.74-.32c.09-.08.3-.24.24-.38a3.3,3.3,0,0,1-.25-1.52v.12a2.23,2.23,0,0,1,.05-.36.15.15,0,0,0,0-.18.25.25,0,0,0-.17-.12,1.51,1.51,0,0,0-.7,0,2.51,2.51,0,0,0-.83.26l-.2.13a.61.61,0,0,0-.23.25Z" style="fill:#eeeee8"/><path d="M33,66.7v.94" style="fill:#4c5a27"/><path d="M31.86,67v.94a.23.23,0,0,0,.14.15.47.47,0,0,0,.26.08,1.21,1.21,0,0,0,.38,0,2.14,2.14,0,0,0,.43-.07l.28-.1a2,2,0,0,0,.45-.24l.14-.14a.27.27,0,0,0,.09-.27v-.93a.2.2,0,0,0-.14-.15.58.58,0,0,0-.26-.09,2.41,2.41,0,0,0-.38,0,2.17,2.17,0,0,0-.43.08l-.28.09a1.66,1.66,0,0,0-.45.25l-.14.13a.29.29,0,0,0-.09.27Z" style="fill:#eeeee8"/><path d="M37.4,62v1.41" style="fill:#4c5a27"/><path d="M36.3,62.12v1.4a.36.36,0,0,0,.05.27.35.35,0,0,0,.2.21.65.65,0,0,0,.33.11.9.9,0,0,0,.4,0,1.62,1.62,0,0,0,.82-.29l.19-.16a.71.71,0,0,0,.2-.37v-1.4a.32.32,0,0,0-.05-.27.33.33,0,0,0-.19-.21.86.86,0,0,0-.33-.11,1.09,1.09,0,0,0-.4,0,1.59,1.59,0,0,0-.82.29l-.2.16a.75.75,0,0,0-.2.37Z" style="fill:#eeeee8"/><path d="M44.19,61.78v.94" style="fill:#4c5a27"/><path d="M43.11,62.07V63a.2.2,0,0,0,.13.14.5.5,0,0,0,.27.08,1.53,1.53,0,0,0,.37,0,2,2,0,0,0,.43-.08l.28-.09a2,2,0,0,0,.45-.24l.15-.14a.31.31,0,0,0,.09-.26v-.93a.21.21,0,0,0-.14-.15.61.61,0,0,0-.26-.08,1.61,1.61,0,0,0-.38,0,2,2,0,0,0-.42.07l-.29.09a2,2,0,0,0-.45.25l-.14.13a.26.26,0,0,0-.09.26Z" style="fill:#eeeee8"/><path d="M47.06,55.94a2.22,2.22,0,0,0,.34,2.15" style="fill:#4c5a27"/><path d="M46,56.11a2.39,2.39,0,0,0,.4,2.37c.1.13.45.13.57.13a2.75,2.75,0,0,0,.85-.18,1.4,1.4,0,0,0,.6-.38l.08-.13a.2.2,0,0,0-.06-.23,1.13,1.13,0,0,1-.1-.13l.07.1A2.29,2.29,0,0,1,48,56.27v.12a2.63,2.63,0,0,1,.13-.62c.06-.15-.07-.25-.19-.3a1.42,1.42,0,0,0-.71,0,2.62,2.62,0,0,0-.82.26.93.93,0,0,0-.43.4Z" style="fill:#eeeee8"/><path d="M47.87,52.6l.47.47a.48.48,0,0,0,.25.14.8.8,0,0,0,.34.07,2,2,0,0,0,.42,0,2,2,0,0,0,.43-.13L50,53a1.08,1.08,0,0,0,.33-.31l.08-.16a.36.36,0,0,0-.08-.3l-.47-.47a.48.48,0,0,0-.25-.14.8.8,0,0,0-.34-.07,2,2,0,0,0-.43,0,2.35,2.35,0,0,0-.43.13l-.24.13a1.12,1.12,0,0,0-.34.31l-.07.16a.32.32,0,0,0,.08.3Z" style="fill:#eeeee8"/><path d="M41.14,58.73a1,1,0,0,0-.22.94" style="fill:#4c5a27"/><path d="M40.16,58.81a1.29,1.29,0,0,0-.32.55,1.11,1.11,0,0,0,0,.6.15.15,0,0,0,.12.1.57.57,0,0,0,.26,0,1.45,1.45,0,0,0,.36,0A3,3,0,0,0,41,60l.28-.09a1.92,1.92,0,0,0,.46-.21l.15-.11a.23.23,0,0,0,.11-.21A1,1,0,0,1,42,59V59a1.09,1.09,0,0,1,.21-.48l-.09.11,0,0a.17.17,0,0,0,.1-.16.09.09,0,0,0,0-.12.49.49,0,0,0-.23-.06.92.92,0,0,0-.33,0,3.52,3.52,0,0,0-.84.19l-.25.1a1.65,1.65,0,0,0-.36.22Z" style="fill:#eeeee8"/><path d="M37.88,72.09a2.61,2.61,0,0,0,.2,1.65" style="fill:#4c5a27"/><path d="M36.78,72.21A3.08,3.08,0,0,0,37,74a.37.37,0,0,0,.16.21.5.5,0,0,0,.28.14,1.63,1.63,0,0,0,.82,0A1.69,1.69,0,0,0,39,74l.13-.17a.49.49,0,0,0,.07-.35,2.7,2.7,0,0,1-.26-1v.17A2.51,2.51,0,0,1,39,72a.42.42,0,0,0-.24-.44,1.2,1.2,0,0,0-.72-.11,1.68,1.68,0,0,0-.82.28.9.9,0,0,0-.41.51Z" style="fill:#eeeee8"/><path d="M40.67,67.64a1.39,1.39,0,0,0,.48,1.16" style="fill:#4c5a27"/><path d="M39.57,67.72a2.27,2.27,0,0,0,0,.52,1,1,0,0,0,.09.34,2.25,2.25,0,0,0,.24.46,3.5,3.5,0,0,0,.38.39.83.83,0,0,0,.34.13,1.07,1.07,0,0,0,.4,0,1.34,1.34,0,0,0,.44-.1,1.16,1.16,0,0,0,.38-.2.86.86,0,0,0,.38-.57v-.21a.59.59,0,0,0-.25-.33l0,0,.16.15a1.39,1.39,0,0,1-.31-.41l.1.19a1.39,1.39,0,0,1-.14-.53v0a.39.39,0,0,0-.06-.3.42.42,0,0,0-.2-.24.78.78,0,0,0-.34-.13.9.9,0,0,0-.4,0,1.52,1.52,0,0,0-.82.3.9.9,0,0,0-.38.57Z" style="fill:#eeeee8"/><path d="M45.07,71.64l.73,2.1" style="fill:#4c5a27"/><path d="M44,71.93l.72,2.1c.17.5.84.59,1.29.46a1.45,1.45,0,0,0,.71-.43.69.69,0,0,0,.17-.61l-.72-2.1c-.17-.51-.84-.59-1.29-.46a1.45,1.45,0,0,0-.71.43.69.69,0,0,0-.17.61Z" style="fill:#eeeee8"/><path d="M48.89,66.23a6.25,6.25,0,0,0,.2,2.58" style="fill:#4c5a27"/><path d="M47.8,66.35a7,7,0,0,0,.2,2.76.59.59,0,0,0,.44.34A1.74,1.74,0,0,0,50,69a.59.59,0,0,0,.21-.52A6.35,6.35,0,0,1,49.93,67v.18a7,7,0,0,1,0-1c.07-.49-.6-.59-1-.54a1.75,1.75,0,0,0-.82.28c-.16.12-.37.28-.4.5Z" style="fill:#eeeee8"/><path d="M50.32,60.86a.67.67,0,0,0,.43,1" style="fill:#4c5a27"/><path d="M49.3,60.78a1.27,1.27,0,0,0-.13.32.77.77,0,0,0,0,.15,1.13,1.13,0,0,0,.08.48,1.25,1.25,0,0,0,.26.41,1.39,1.39,0,0,0,.27.21,2.13,2.13,0,0,0,.35.14,1,1,0,0,0,.38,0,1.32,1.32,0,0,0,.44-.05,1.42,1.42,0,0,0,.4-.17,1,1,0,0,0,.31-.24.56.56,0,0,0,.19-.55l-.08-.17a.75.75,0,0,0-.36-.22l-.11,0,.21.09a.46.46,0,0,1-.15-.09l.16.13a.68.68,0,0,1-.17-.21l.08.17a.73.73,0,0,1-.07-.29v.19a.46.46,0,0,1,0-.23l-.07.19,0-.09a.41.41,0,0,0,.07-.28.35.35,0,0,0-.1-.26.45.45,0,0,0-.25-.18.73.73,0,0,0-.35-.09,1.7,1.7,0,0,0-.86.16,1.19,1.19,0,0,0-.56.48Z" style="fill:#eeeee8"/><path d="M53.29,54.78l1.42,2.33" style="fill:#4c5a27"/><path d="M52.29,55.25l1.43,2.34a1,1,0,0,0,.62.31,1.61,1.61,0,0,0,.86-.15c.41-.22.8-.65.51-1.12L54.28,54.3a.92.92,0,0,0-.62-.32,1.56,1.56,0,0,0-.85.15c-.42.22-.81.65-.52,1.12Z" style="fill:#eeeee8"/><path d="M55.45,62.48a2.7,2.7,0,0,0,.45,2.12" style="fill:#4c5a27"/><path d="M54.35,62.56a3.26,3.26,0,0,0,.55,2.52.94.94,0,0,0,.62.32,1.5,1.5,0,0,0,.86-.15,1.13,1.13,0,0,0,.56-.52.61.61,0,0,0,0-.61,4,4,0,0,1-.23-.39l.09.19a2.69,2.69,0,0,1-.26-1v.21a3,3,0,0,1,0-.73.57.57,0,0,0-.26-.55,1.23,1.23,0,0,0-.75-.18,1.27,1.27,0,0,0-1.19.89Z" style="fill:#eeeee8"/><path d="M54,71.62v1.17" style="fill:#4c5a27"/><path d="M53,71.91v1.17a.12.12,0,0,0,.12.09.44.44,0,0,0,.25,0,2.22,2.22,0,0,0,.37,0,3.29,3.29,0,0,0,.43-.09,2.78,2.78,0,0,0,.74-.29c.11-.07.26-.15.26-.3V71.33a.13.13,0,0,0-.12-.09.55.55,0,0,0-.25,0,2.22,2.22,0,0,0-.37,0,3,3,0,0,0-.43.09,2.78,2.78,0,0,0-.74.29c-.11.07-.26.15-.26.3Z" style="fill:#eeeee8"/><path d="M54.27,77.71v1.41" style="fill:#4c5a27"/><path d="M53.18,78v1.41a.26.26,0,0,0,.15.17.49.49,0,0,0,.27.1,1.15,1.15,0,0,0,.37,0,1.55,1.55,0,0,0,.43-.07,1.77,1.77,0,0,0,.73-.35l.14-.15a.35.35,0,0,0,.09-.29V77.42a.28.28,0,0,0-.15-.17.52.52,0,0,0-.27-.1,1.2,1.2,0,0,0-.38,0,1.61,1.61,0,0,0-.43.07,1.83,1.83,0,0,0-.73.35l-.14.15a.34.34,0,0,0-.08.29Z" style="fill:#eeeee8"/><path d="M48.64,78.18v.94" style="fill:#4c5a27"/><path d="M47.56,78.47v.94a.15.15,0,0,0,.13.1.51.51,0,0,0,.25,0,1.56,1.56,0,0,0,.37,0,3.15,3.15,0,0,0,.42-.09l.29-.09a1.85,1.85,0,0,0,.45-.21l.16-.11a.23.23,0,0,0,.1-.2v-.94a.15.15,0,0,0-.13-.1.42.42,0,0,0-.25,0,1.56,1.56,0,0,0-.37,0,3.15,3.15,0,0,0-.42.09l-.29.09a2.11,2.11,0,0,0-.46.21l-.15.11a.23.23,0,0,0-.1.2Z" style="fill:#eeeee8"/><path d="M45.12,82.4a1.49,1.49,0,0,1-.21,1.18" style="fill:#4c5a27"/><path d="M44,82.69a2.17,2.17,0,0,1,0,.25v-.2a1.54,1.54,0,0,1-.08.57l.07-.2a1.22,1.22,0,0,1-.18.36.54.54,0,0,0-.06.3.39.39,0,0,0,.1.27.55.55,0,0,0,.26.19.83.83,0,0,0,.35.1,1.69,1.69,0,0,0,.86-.15l.24-.15a1.07,1.07,0,0,0,.32-.35,1.51,1.51,0,0,0,.15-.28,2.9,2.9,0,0,0,.14-.48,1.63,1.63,0,0,0,0-.31,4,4,0,0,0,0-.5.44.44,0,0,0-.17-.25.61.61,0,0,0-.28-.16,1,1,0,0,0-.39,0,1.32,1.32,0,0,0-.44,0,1.45,1.45,0,0,0-.71.41.67.67,0,0,0-.19.58Z" style="fill:#eeeee8"/><path d="M41.85,77v1.17" style="fill:#4c5a27"/><path d="M40.76,77.3v1.17a.25.25,0,0,0,.14.16.62.62,0,0,0,.27.09,2.29,2.29,0,0,0,.37,0,2.25,2.25,0,0,0,1.17-.42l.14-.14a.33.33,0,0,0,.09-.27V76.72a.24.24,0,0,0-.15-.16.54.54,0,0,0-.26-.09,2.41,2.41,0,0,0-.38,0,2.26,2.26,0,0,0-.43.07,2.05,2.05,0,0,0-.73.35l-.14.14a.33.33,0,0,0-.09.27Z" style="fill:#eeeee8"/><path d="M38.33,82.87v1.4" style="fill:#4c5a27"/><path d="M37.24,83V84.4a.26.26,0,0,0,0,.24.32.32,0,0,0,.19.19.9.9,0,0,0,.32.09,1.34,1.34,0,0,0,.4,0,1.88,1.88,0,0,0,.82-.29l.2-.15a.66.66,0,0,0,.2-.34V82.74a.26.26,0,0,0,0-.24.35.35,0,0,0-.19-.19.9.9,0,0,0-.32-.09,1.34,1.34,0,0,0-.4,0,1.88,1.88,0,0,0-.82.29l-.2.15a.75.75,0,0,0-.21.34Z" style="fill:#eeeee8"/><path d="M33.41,76.31v1.87" style="fill:#4c5a27"/><path d="M32.33,76.6v1.87c0,.16.31.22.4.23a2,2,0,0,0,.8-.07,2,2,0,0,0,.74-.34l.14-.13a.29.29,0,0,0,.09-.27V76c0-.15-.32-.21-.4-.23a2.22,2.22,0,0,0-.81.08,1.94,1.94,0,0,0-.73.33l-.15.14a.3.3,0,0,0-.08.27Z" style="fill:#eeeee8"/><path d="M29.68,82.4a2.5,2.5,0,0,0,.18,1.66" style="fill:#4c5a27"/><path d="M28.6,82.55a2.66,2.66,0,0,0,.18,1.8.24.24,0,0,0,.14.17.54.54,0,0,0,.27.11,1.85,1.85,0,0,0,.81-.06,1.77,1.77,0,0,0,.73-.35l.14-.15a.37.37,0,0,0,.08-.3,2.55,2.55,0,0,1-.25-1.12v.15a2,2,0,0,1,.07-.54.33.33,0,0,0-.22-.37,1.32,1.32,0,0,0-.71-.06,2.15,2.15,0,0,0-.82.27.84.84,0,0,0-.42.45Z" style="fill:#eeeee8"/><path d="M24.74,75.84v.93" style="fill:#4c5a27"/><path d="M23.65,75.94v.93a.34.34,0,0,0,.05.28.39.39,0,0,0,.2.22.66.66,0,0,0,.33.12,1.08,1.08,0,0,0,.4,0l.3-.06a1.64,1.64,0,0,0,.52-.24l.19-.16a.74.74,0,0,0,.2-.38v-.94a.39.39,0,0,0-.05-.28.43.43,0,0,0-.2-.22.66.66,0,0,0-.33-.12,1.12,1.12,0,0,0-.41,0l-.29.05a1.64,1.64,0,0,0-.52.24l-.2.17a.72.72,0,0,0-.19.38Z" style="fill:#eeeee8"/><path d="M22.17,70.92v1.64" style="fill:#4c5a27"/><path d="M21.08,71.21v1.64c0,.12.34.12.37.12a3,3,0,0,0,.79-.12,2.72,2.72,0,0,0,.75-.29c.11-.07.26-.15.26-.29V70.63c0-.12-.34-.13-.37-.13a3,3,0,0,0-.79.12,2.56,2.56,0,0,0-.75.3c-.1.06-.26.14-.26.29Z" style="fill:#eeeee8"/><path d="M25.71,65.52l.23,2.35" style="fill:#4c5a27"/><path d="M24.63,65.82l.23,2.34c0,.19.29.32.44.37a1.63,1.63,0,0,0,.82,0,1.51,1.51,0,0,0,.71-.39l.14-.18a.45.45,0,0,0,.06-.36l-.23-2.35c0-.19-.29-.32-.44-.37a1.63,1.63,0,0,0-.82,0,1.69,1.69,0,0,0-.72.39l-.13.18a.48.48,0,0,0-.06.37Z" style="fill:#eeeee8"/><path d="M18.42,63.65a3,3,0,0,0-.23,1.64" style="fill:#4c5a27"/><path d="M17.33,63.79a3.24,3.24,0,0,0-.23,1.79c0,.18.29.26.42.29a1.71,1.71,0,0,0,.81-.05,1.67,1.67,0,0,0,.73-.36.55.55,0,0,0,.22-.46,2.18,2.18,0,0,1,0-.44v.15a3.12,3.12,0,0,1,.26-1.2c.08-.16-.1-.32-.22-.38a1.32,1.32,0,0,0-.71-.07,2.35,2.35,0,0,0-.82.28l-.2.14a.74.74,0,0,0-.22.31Z" style="fill:#eeeee8"/><path d="M23.5,80.78l.75,2.1" style="fill:#4c5a27"/><path d="M22.42,81.07l.74,2.1c.18.5.84.59,1.29.45a1.39,1.39,0,0,0,.71-.42.7.7,0,0,0,.18-.61l-.75-2.1A1,1,0,0,0,23.3,80a1.39,1.39,0,0,0-.71.42.67.67,0,0,0-.17.61Z" style="fill:#eeeee8"/><path d="M26.59,87.81l1.87,2.58" style="fill:#4c5a27"/><path d="M25.5,88.1l1.87,2.58a.47.47,0,0,0,.39.16,2.65,2.65,0,0,0,.79-.11,2.5,2.5,0,0,0,.74-.3c.07-.05.33-.22.26-.33l-1.87-2.58a.47.47,0,0,0-.39-.16,2.35,2.35,0,0,0-.79.1,2.83,2.83,0,0,0-.74.31c-.07,0-.33.22-.26.33Z" style="fill:#eeeee8"/><path d="M35.05,87.79v1.64" style="fill:#4c5a27"/><path d="M34,87.91v1.64a.28.28,0,0,0,0,.25.35.35,0,0,0,.19.19,1.28,1.28,0,0,0,.72.11,1.8,1.8,0,0,0,.82-.29l.2-.15a.78.78,0,0,0,.21-.35V87.67a.31.31,0,0,0,0-.25.35.35,0,0,0-.19-.19,1.23,1.23,0,0,0-.73-.11,1.88,1.88,0,0,0-.82.29l-.19.15a.78.78,0,0,0-.21.35Z" style="fill:#eeeee8"/><path d="M39.1,93.17l.22,2.58" style="fill:#4c5a27"/><path d="M38,93.46,38.23,96c0,.12.33.12.37.12a2.61,2.61,0,0,0,.79-.12,2.85,2.85,0,0,0,.75-.29c.1-.06.27-.15.26-.29l-.21-2.58c0-.12-.33-.12-.38-.12a3.09,3.09,0,0,0-.79.12,2.78,2.78,0,0,0-.74.29c-.1.07-.28.15-.27.29Z" style="fill:#eeeee8"/><path d="M32.47,94.12a2.18,2.18,0,0,0,.71,1.4" style="fill:#4c5a27"/><path d="M31.38,94.41a2.1,2.1,0,0,0,.24.77,2.73,2.73,0,0,0,.55.76,1,1,0,0,0,.59.17,1.5,1.5,0,0,0,.42,0,1.64,1.64,0,0,0,.43-.13l.24-.12a1,1,0,0,0,.34-.29c.08-.13.14-.31,0-.43a3,3,0,0,1-.42-.52l.08.13a2.29,2.29,0,0,1-.3-.89.24.24,0,0,0-.14-.17.54.54,0,0,0-.27-.11,1.23,1.23,0,0,0-.38,0,2,2,0,0,0-.43.07,1.85,1.85,0,0,0-.73.36l-.14.15a.38.38,0,0,0-.08.31Z" style="fill:#eeeee8"/><path d="M36.93,99.27l.47,1.17" style="fill:#4c5a27"/><path d="M35.84,99.56l.47,1.17c.06.15.26.19.4.2a1.16,1.16,0,0,0,.37,0,2.14,2.14,0,0,0,.43-.07,2.19,2.19,0,0,0,.73-.33l.15-.13a.26.26,0,0,0,.09-.24L38,99c-.06-.15-.26-.19-.4-.2a1.15,1.15,0,0,0-.37,0,2,2,0,0,0-.43.07,2.47,2.47,0,0,0-.74.33l-.14.13a.25.25,0,0,0-.1.24Z" style="fill:#eeeee8"/><path d="M43.26,97.4l-.47.93" style="fill:#4c5a27"/><path d="M42.23,97.32l-.47.94a.34.34,0,0,0-.06.27.32.32,0,0,0,.08.25A.56.56,0,0,0,42,99a.82.82,0,0,0,.35.08,1.79,1.79,0,0,0,.85-.16l.24-.13a1,1,0,0,0,.33-.34l.47-.93a.41.41,0,0,0,.07-.28.35.35,0,0,0-.09-.25.56.56,0,0,0-.25-.16.85.85,0,0,0-.35-.08,1.7,1.7,0,0,0-.86.16l-.24.13a1.15,1.15,0,0,0-.33.33Z" style="fill:#eeeee8"/><path d="M40.2,102.78a3,3,0,0,0,.49,1.64" style="fill:#4c5a27"/><path d="M39.11,103.08a3.41,3.41,0,0,0,.57,1.77.48.48,0,0,0,.25.14.77.77,0,0,0,.34.07,1.93,1.93,0,0,0,.85-.17,1.14,1.14,0,0,0,.58-.43l.07-.17a.3.3,0,0,0-.08-.3,1.09,1.09,0,0,1-.08-.15l.07.14a3.19,3.19,0,0,1-.4-1.49.26.26,0,0,0-.15-.19.57.57,0,0,0-.27-.13,1.75,1.75,0,0,0-.82,0,1.67,1.67,0,0,0-.72.38l-.14.16a.43.43,0,0,0-.07.33Z" style="fill:#eeeee8"/><path d="M48.2,97.17l-.5,1.63" style="fill:#4c5a27"/><path d="M47.12,97.33,46.63,99c-.05.15.06.25.2.3a1.5,1.5,0,0,0,.7,0,2.64,2.64,0,0,0,.82-.27c.16-.09.38-.21.43-.4l.5-1.63c0-.15-.07-.25-.2-.3a1.51,1.51,0,0,0-.7,0,2.61,2.61,0,0,0-.83.27c-.16.09-.37.21-.43.39Z" style="fill:#eeeee8"/><path d="M44.89,103.25a2.19,2.19,0,0,0-.46,1.41" style="fill:#4c5a27"/><path d="M43.88,103.22a2.73,2.73,0,0,0-.43.83,2.48,2.48,0,0,0-.11.9.32.32,0,0,0,.15.19.47.47,0,0,0,.28.12,1,1,0,0,0,.38,0,1.59,1.59,0,0,0,.43-.06,1.65,1.65,0,0,0,.72-.37l.14-.16a.37.37,0,0,0,.07-.32v.11a2.08,2.08,0,0,1,.19-.92l-.07.17a2.07,2.07,0,0,1,.27-.45.38.38,0,0,0,0-.46.49.49,0,0,0-.24-.14,1,1,0,0,0-.35-.06,1.79,1.79,0,0,0-1.43.6Z" style="fill:#eeeee8"/><path d="M45.37,92a4.06,4.06,0,0,0-.48,2.1" style="fill:#4c5a27"/><path d="M44.33,91.89a4.68,4.68,0,0,0-.54,2.31.39.39,0,0,0,.06.3.41.41,0,0,0,.2.23,1.14,1.14,0,0,0,.74.16,1.52,1.52,0,0,0,.82-.3l.19-.17A.72.72,0,0,0,46,94a4,4,0,0,1,.19-1.42l-.07.21a5.42,5.42,0,0,1,.29-.7.55.55,0,0,0,0-.59.94.94,0,0,0-.61-.3,1.49,1.49,0,0,0-1.42.66Z" style="fill:#eeeee8"/><path d="M42.8,86.85A2.68,2.68,0,0,0,43,88.5" style="fill:#4c5a27"/><path d="M41.69,86.92a3.36,3.36,0,0,0,0,1,2.57,2.57,0,0,0,.23.82.55.55,0,0,0,.18.29.61.61,0,0,0,.29.19,1.34,1.34,0,0,0,.84,0,1.3,1.3,0,0,0,.7-.44l.13-.21a.74.74,0,0,0,0-.44,2.68,2.68,0,0,1-.25-.92l0,.22a2.88,2.88,0,0,1,0-.72.65.65,0,0,0-.27-.59,1.18,1.18,0,0,0-.75-.2,1.46,1.46,0,0,0-.82.31l-.18.18a.8.8,0,0,0-.19.43Z" style="fill:#eeeee8"/><path d="M48,87.56A2,2,0,0,0,48.17,89" style="fill:#4c5a27"/><path d="M46.87,87.68a2.6,2.6,0,0,0,0,.88,2.24,2.24,0,0,0,.24.7.3.3,0,0,0,.15.2.47.47,0,0,0,.28.12,1.2,1.2,0,0,0,.38,0,1.54,1.54,0,0,0,.43-.06,1.57,1.57,0,0,0,.72-.38l.14-.16a.41.41,0,0,0,.07-.34,2,2,0,0,1-.25-1v.16a2.28,2.28,0,0,1,0-.45.39.39,0,0,0-.23-.42.9.9,0,0,0-.32-.09,1.34,1.34,0,0,0-.4,0,2,2,0,0,0-.82.28.86.86,0,0,0-.4.48Z" style="fill:#eeeee8"/><path d="M51.46,92.24v2.81" style="fill:#4c5a27"/><path d="M50.37,92.53v2.81c0,.17.31.26.42.28a1.8,1.8,0,0,0,.8-.05,1.85,1.85,0,0,0,.73-.36l.14-.15a.33.33,0,0,0,.08-.3V92c0-.17-.31-.26-.41-.28a1.85,1.85,0,0,0-.81,0,1.92,1.92,0,0,0-.73.36l-.14.15a.37.37,0,0,0-.08.3Z" style="fill:#eeeee8"/><path d="M53.1,87.08v1.41" style="fill:#4c5a27"/><path d="M52,87.38v1.4c0,.12.34.12.37.12a3,3,0,0,0,.79-.12,2.85,2.85,0,0,0,.75-.29c.11-.07.26-.15.26-.29V86.79c0-.11-.34-.11-.37-.11a2.66,2.66,0,0,0-.79.12,3,3,0,0,0-.75.29c-.1.06-.26.14-.26.29Z" style="fill:#eeeee8"/><path d="M51.9,81l-.23,1.87" style="fill:#4c5a27"/><path d="M50.81,81.08,50.57,83a.56.56,0,0,0,.26.53,1.19,1.19,0,0,0,.74.16,1.57,1.57,0,0,0,.81-.3.9.9,0,0,0,.39-.56L53,80.9a.56.56,0,0,0-.25-.53,1.2,1.2,0,0,0-.74-.15,1.59,1.59,0,0,0-.82.29.93.93,0,0,0-.38.57Z" style="fill:#eeeee8"/><path d="M36.88,20.34a16.91,16.91,0,0,0-7.47-2.53c-1.27-.16-2.54-.25-3.81-.34-1.46-.1-3-.21-4.05-1.29A14.73,14.73,0,0,0,19,13.78a16.89,16.89,0,0,0-3.56-1.5c-2.25-.75-4.84-1.63-5.77-4-.39-1-3.26-.14-2.9.78.89,2.27,3,3.49,5.25,4.27,1.22.44,2.48.78,3.66,1.33a11.38,11.38,0,0,1,3.22,2.68c1.95,1.92,4.92,1.71,7.45,1.93a16.92,16.92,0,0,1,8.27,2.5c.77.53,3.45-.62,2.3-1.4Z" style="fill:#ce010f"/><path d="M45.73,26.3c2.67-1.37,5.54-2.93,8.59-3.15,3.27-.23,6.15,1.58,9.29,2.15,5.59,1,12.18-.24,16.74,3.9.61.55,3.26-.54,2.72-1-5.32-4.82-12.95-2.65-19.27-4.58A43.09,43.09,0,0,0,58.73,22a14.62,14.62,0,0,0-4.85,0A34.35,34.35,0,0,0,44,25.79c-.39.2-.85.56-.33.86s1.59-.12,2-.35Z" style="fill:#ce010f"/><path d="M73.06,21.39a36,36,0,0,0-7.19,3.52c-.27.17-.52.62-.05.73a8.07,8.07,0,0,1,5,3.63c.49.8,3.22-.25,2.9-.78a9,9,0,0,0-5.57-4.08l0,.73.44-.28c-.15.1.18-.1.17-.1l.78-.45c.51-.28,1-.55,1.55-.8l.76-.36h0l.23-.1.36-.15c.55-.23,1.12-.45,1.68-.65.25-.09,1.26-.56.83-.94s-1.44-.06-1.88.09Z" style="fill:#ce010f"/><path d="M64.36,20.06A30.81,30.81,0,0,0,57,23s-.45.27-.36.39l3.59,4.27c.3.37,1.17.11,1.55,0,.11,0,1.56-.52,1.35-.77L59.5,22.64l-.35.39q.39-.23.78-.42l.17-.09.34-.17c.49-.24,1-.45,1.5-.66s-.26.09.13-.05l.35-.14.84-.29.36-.11c-.36.09.05,0,.1,0,.28-.09.56-.16.85-.24s1.42-.36,1.34-.77-1.4,0-1.55,0Z" style="fill:#ce010f"/><path d="M12.61,8.54v3.61c0,.14,0,.29,0,.43a.7.7,0,0,1,0,.14l.05-.1a.87.87,0,0,1,.61-.33,1,1,0,0,1,.73-.23,8.52,8.52,0,0,0-1.13,0H9.25a2.92,2.92,0,0,0-1.13.22,1.69,1.69,0,0,0-.77.6c-.31.58.26.93.8.93h4.12a5,5,0,0,0,2-.25,1.78,1.78,0,0,0,1.21-1.31,10.93,10.93,0,0,0,0-1.28V8.21a.57.57,0,0,0-.31-.57,1.71,1.71,0,0,0-1-.13,2.68,2.68,0,0,0-1.09.38c-.2.14-.54.38-.54.65Z" style="fill:#ce010f"/><path d="M19.86,13.32l0,4.84,2.64-1a18,18,0,0,0-5.77,0,4,4,0,0,0-1.11.35c-.16.08-.51.25-.59.45-.19.5,1,.32,1.16.29l.28,0,.19,0-.18,0a1.75,1.75,0,0,1,.56-.06l.56,0H18c.38,0,.75,0,1.12,0l.56.06c.07,0,.07,0,0,0l.14,0,.33.05a3.38,3.38,0,0,0,1.69-.23c.3-.12.94-.33.94-.73l0-4.84c0-.17-.44-.2-.51-.21a4.11,4.11,0,0,0-2.05.55c-.16.11-.34.23-.34.44Z" style="fill:#ce010f"/><path d="M25.68,16.08l2.54,3.32.21-.7-.3.2L28,19c.12-.08.12-.08,0,0a5.84,5.84,0,0,1-.53.33c-.39.23-.78.45-1.19.66l-.28.14-.18.09.14-.07a5.65,5.65,0,0,1-.67.29c-.42.18-.84.34-1.27.48s-1.23.61-.81,1a1.22,1.22,0,0,0,.77.19,4,4,0,0,0,1.13-.24A23,23,0,0,0,30.71,19c.25-.17.41-.44.21-.7L28.39,15c-.13-.18-.59-.2-.76-.19a3.18,3.18,0,0,0-1.14.23c-.35.15-1.17.55-.81,1Z" style="fill:#ce010f"/><path d="M52.66,19.43a11.84,11.84,0,0,0-3.42,4.67.14.14,0,0,0,.06.21c1.19.83,2.38,1.67,3.55,2.52a1.4,1.4,0,0,0,.73.06,4.76,4.76,0,0,0,1.13-.26c.16-.06,1.26-.48.88-.76C54.42,25,53.23,24.18,52,23.35l.05.21a11.09,11.09,0,0,1,3.18-4.41c.49-.41-.45-.42-.67-.4a3.88,3.88,0,0,0-1.94.68Z" style="fill:#ce010f"/></g></g></svg>