<svg xmlns="http://www.w3.org/2000/svg" viewBox="0 0 320.26 134.87"><g id="f4a8d422-c334-42ee-997e-97aafcb5077a" data-name="Layer 2"><g id="b334f96d-e766-4d3c-a7a1-027b7d134c57" data-name="Layer 1"><text transform="translate(123.59 74.74)" style="font-size:60px;fill:#cc234b;font-family:GLEreklesStamba-Regular, GL Erekles Stamba">მარწ<tspan x="104.64" y="0" style="letter-spacing:0.019986979166666665em">ყ</tspan><tspan x="135.3" y="0">ვი </tspan></text><path d="M44.15,56c-6.72,2.52-13.72,5.24-18.41,10.67-6,6.9-6.95,17-4.77,25.9s7.08,16.77,11.92,24.5c2.56,4.1,5.19,8.26,8.86,11.41a47.27,47.27,0,0,0,6.6,4.48,7,7,0,0,0,4.19,1.42c1.63-.16,2.93-1.41,4.08-2.59,5.93-6.08,12.05-12.46,14.63-20.55a52.28,52.28,0,0,0,1.89-10.7A126.55,126.55,0,0,0,74,87.82a69.7,69.7,0,0,0-3.71-22.5,10.37,10.37,0,0,0-2.59-4.59,11.13,11.13,0,0,0-4.15-2c-6.53-2-13.32-4.12-20.1-3.22" style="fill:#ce010f"/><path d="M43.81,55.67c-6,2.27-12.32,4.67-17.1,9.17a25.31,25.31,0,0,0-7.54,16.67c-1.11,14.35,7.28,27.3,14.78,38.81a40,40,0,0,0,6.7,8.24,32.29,32.29,0,0,0,4,3,31.06,31.06,0,0,0,4.85,2.84c2.75,1.17,5.2.12,7.24-1.86,2.43-2.36,4.76-4.87,7-7.43,4.66-5.42,8.23-11.4,9.48-18.51.7-4,1-8,1.34-12a81.17,81.17,0,0,0,.14-11.67A69.53,69.53,0,0,0,72.59,70a54.92,54.92,0,0,0-1.86-6,8.64,8.64,0,0,0-2.7-4,17.38,17.38,0,0,0-5.35-2.18c-2.14-.67-4.3-1.31-6.48-1.83a35.75,35.75,0,0,0-12.65-1c-.82.1-1.38,1.11-.22,1a33.13,33.13,0,0,1,11.39.85c1.71.39,3.41.87,5.1,1.37A40.77,40.77,0,0,1,65.26,60c3.23,1.49,4.11,5,5,8.18a68.54,68.54,0,0,1,2.18,10c1.06,7.48.61,14.92-.16,22.41a53.21,53.21,0,0,1-1.89,10.7,33.41,33.41,0,0,1-4.3,8.54A65.68,65.68,0,0,1,60,127.42c-1,1.13-2.12,2.25-3.19,3.35s-2.6,3.14-4.37,3.17c-1.61,0-3.27-1.25-4.58-2.05a43.38,43.38,0,0,1-4.67-3.15,33.38,33.38,0,0,1-6.39-7.13,146.69,146.69,0,0,1-10.56-17.56c-2.88-5.75-5.1-11.92-5.45-18.39C20.43,79,22,71.94,26.47,66.79c4.64-5.38,11.54-8,18-10.4,1.09-.41.1-1-.67-.72Z" style="fill:#ce010f"/><path d="M46.65,50.72a84.77,84.77,0,0,0-19.32,1.89,31.59,31.59,0,0,0,11.36,2.3L27.36,61.47c5.93.22,12.26.33,17.29-2.81l2.69,11.51a17.47,17.47,0,0,0,2.44-11.89,18.62,18.62,0,0,0,13.87,4.23l-8.76-6.76A23.17,23.17,0,0,0,62.78,57a8.41,8.41,0,0,0,6.73-3.75,29.21,29.21,0,0,1-9.73-1.43,9,9,0,0,0,6-4.22,36.51,36.51,0,0,1-19,2.43" style="fill:#eeeee8"/><path d="M47.2,49.85a90.31,90.31,0,0,0-20.08,2c-.43.09-2,1.09-.94,1.51a34.53,34.53,0,0,0,12,2.44l-.36-1.34L26.45,61c-.84.49-.57,1.31.36,1.34,6.41.23,13.09.22,18.75-3.21L43.2,59l2.69,11.52c.25,1.08,2.45.27,2.81-.33A18.51,18.51,0,0,0,51.23,57.9l-2.79,1a20.37,20.37,0,0,0,15,4.5c.33,0,2.34-.81,1.52-1.44l-8.76-6.76L54,56.58c5.59,1.55,13.27,2.5,16.86-3.33.34-.56-.3-.93-.81-.92a29.21,29.21,0,0,1-9.41-1.39L60,52.55a11,11,0,0,0,7.2-4.94c.7-1.12-1.49-.88-1.94-.71a35.08,35.08,0,0,1-17.54,2.25,2.45,2.45,0,0,0-2.05.55c-.4.4-.37,1,.29,1.1a40.69,40.69,0,0,0,20.47-2.6l-1.94-.7A7.4,7.4,0,0,1,59.57,51c-.78.15-1.91,1.21-.67,1.6A31.2,31.2,0,0,0,69,54.06l-.81-.92c-2.68,4.35-8.34,2.91-12.38,1.79-.51-.14-3.18.67-2.22,1.4l8.76,6.76,1.52-1.43a17.43,17.43,0,0,1-12.7-4c-.69-.56-3-.21-2.8,1A17.23,17.23,0,0,1,46,70.12l2.81-.33-2.7-11.52c-.21-.91-1.89-.37-2.36-.09C39,61,33.23,60.79,27.91,60.61L28.28,62,39.6,55.39c.83-.48.58-1.32-.36-1.35a31.08,31.08,0,0,1-10.77-2.16l-.93,1.51a83.23,83.23,0,0,1,18.56-1.8c.6,0,1.62-.19,1.91-.81s-.24-.92-.81-.93Z" style="fill:#ce010f"/><path d="M49.89,53.54q.59-6.52.75-13.09c.06-2.12.07-4.25.06-6.37a22.88,22.88,0,0,0-.43-6,10,10,0,0,0-3.07-4.4c-1.38-1.31-2.83-2.54-4.33-3.72a68,68,0,0,0-9.95-6.41c-1.13-.6-3.06.05-4.08.62-.8.45-1.74,1.35-.59,2a62,62,0,0,1,9.2,6c1.5,1.17,3,2.41,4.34,3.71A8.33,8.33,0,0,1,44.58,30a26.32,26.32,0,0,1,.32,5.61c0,2,0,4.09,0,6.13q-.15,6.33-.73,12.62c-.1,1.19,1.64,1.09,2.43,1s3.24-.69,3.34-1.81Z" style="fill:#ce010f"/><path d="M46.07,26.06c-1-5.57.31-9.78-.72-15.35-.43-2.29-3.35-6.14-5.16-7.6s-5.26-.85-5.55,1.46a10.84,10.84,0,0,0-3.42-3.29,3.71,3.71,0,0,0-4.4.56c-.4.47-.71,1.14-1.32,1.23-.91.12-1.38-1.08-2.22-1.45-1.7-.75-2.74,2.15-4.5,2.77-2.2.77-4.7-2.34-6.66-1-.84.55-1.3,1.83-2.3,1.81S8.36,3.92,7.45,3.67c-1.15-.31-2,1-2.76,1.91S2.24,7.15,1.8,6.05c-.76.74-.22,2.06.57,2.77S4.19,10.06,4.6,11c.86,2-1.45,4.84.15,6.36C5.6,18.2,7.06,18,8,18.73c1.63,1.36.12,4.5,1.69,5.92,1.24,1.13,3.53.31,4.66,1.54s.2,3.7,1.57,4.71c.95.7,2.4.17,3.4.8,1.35.85,1,3.12,2.21,4.11,1.41,1.12,3.37-.28,5.15-.58,2.63-.46,5.32,1.64,7.88.84,1.69-.53,3-2.27,4.75-2.24.88,0,1.79.47,2.6.13A2.77,2.77,0,0,0,43,32.77a44.71,44.71,0,0,0,3-6.32" style="fill:#eeeee8"/><path d="M47.52,25.67c-.63-3.61-.26-7.21-.31-10.84A17,17,0,0,0,46.6,9.6a14.39,14.39,0,0,0-1.87-3.42c-1.36-2-3.07-4.27-5.6-4.61-2.24-.31-5.47.63-5.94,3.18L36,4C34,1.42,31.5-.74,28,.24a5.21,5.21,0,0,0-2,1,3.19,3.19,0,0,0-.64.68c0,.05-.31.33-.29.38l.82-.17L25.71,2C25.21.88,23.59.57,22.57.75a5.72,5.72,0,0,0-3.17,2c-.24.25-.5.47-.73.72a1.14,1.14,0,0,1-.3.23c.06,0,.29,0,0,0A5.69,5.69,0,0,1,16.51,3a5.85,5.85,0,0,0-4-.62,4.41,4.41,0,0,0-1.72.85,6.34,6.34,0,0,0-.64.63,3.47,3.47,0,0,0-.31.36l-.23.26c.8,0,1,0,.66-.23A3.91,3.91,0,0,0,8.73,3,3.48,3.48,0,0,0,6.37,3a4.77,4.77,0,0,0-2,1.26c-.31.32-.56.67-.84,1-.1.13-.21.25-.31.37-.39.48-.08-.14,0,0C2.73,4.73,1,5.38.45,6A2.29,2.29,0,0,0,.59,8.9c.76,1,2.27,1.49,2.66,2.8.61,2-1.63,4.5.15,6.26.91.88,2.28.61,3.22,1.33s.74,2.09.78,3.07a3.81,3.81,0,0,0,.92,2.86,5.3,5.3,0,0,0,3.15,1c1.49.2,1.91.93,2.06,2.35.12,1,.13,2.19,1,2.91,1.07.88,2.64.21,3.64,1S19,34.6,19.5,35.52c1.4,2.6,4.5,1.17,6.62.6,1.4-.38,2.83.25,4.18.59a8.55,8.55,0,0,0,4.05.18,7.48,7.48,0,0,0,2-.83,11.61,11.61,0,0,1,2.12-1.34c.64-.18,1.4.18,2.08.18a4.43,4.43,0,0,0,2.17-.52c1.31-.7,2-2.18,2.63-3.44.77-1.52,1.39-3.11,2.08-4.67.27-.61-1-.65-1.25-.61a2,2,0,0,0-1.65,1c-.57,1.29-1.08,2.61-1.7,3.89-.23.49-.49,1-.76,1.44A4,4,0,0,1,41.48,33c-.4.33.12.19-.55.11a6.44,6.44,0,0,0-3.23.27c-1.14.44-2,1.28-3.1,1.8s-2.52-.06-3.66-.37a10.18,10.18,0,0,0-3.72-.46,20.91,20.91,0,0,0-3.3.9c-1.45.4-1.73-1-2.08-2.12A3.48,3.48,0,0,0,20.45,31c-1-.57-2.63-.08-3.43-.86s-.5-2-.65-2.84a2.78,2.78,0,0,0-1.51-2.24A11.47,11.47,0,0,0,12,24.48c-1.21-.26-1.54-1.15-1.63-2.28-.16-2,0-4-2.3-4.69-1.22-.38-2.45-.5-2.39-2.08,0-1.1.54-2.15.61-3.25A3.32,3.32,0,0,0,5,9.26c-.79-.67-2.82-1.91-1.83-3.19L.35,6.43c.63,1.15,2,1.16,3.12.83,1.6-.45,2.26-1.48,3.34-2.61,0,0,.38-.35.38-.36l-.32.09c-.35,0-.41.07-.17.18,0,.14.55.49.68.6A2.86,2.86,0,0,0,9.09,6a4.35,4.35,0,0,0,3.6-1.82A2.06,2.06,0,0,1,13,3.76c-.12.07-.4,0-.11.12s.66.22,1,.36c.62.27,1.22.57,1.86.78a5.18,5.18,0,0,0,4.15-.31,6.66,6.66,0,0,0,1.38-1c.37-.36,1.19-.95,1.4-1.41,0-.09.64-.32-.22,0-.67.23-.26,0-.09.25a3.53,3.53,0,0,0,.62.6,2.63,2.63,0,0,0,1.65.79,3.57,3.57,0,0,0,2.38-.73c.54-.42.93-1.39,1.6-1.52,1.88-.35,3.69,2.27,4.64,3.5.54.69,2.65.08,2.8-.74.42-2.32,2.73-.83,3.73.2A17.43,17.43,0,0,1,43.55,10c1,2.42.81,5.4.73,8a42.37,42.37,0,0,0,.34,8.5c.18,1,3.09.29,2.9-.77Z" style="fill:#ce010f"/><path d="M50.94,40.21c.48-1.93,1-4.3,2.73-5.48a16.51,16.51,0,0,1,6.12-2.07,25.33,25.33,0,0,1,14.12,1.75,4.81,4.81,0,0,0,4.1-.55c.73-.45,1.81-1.69.52-2.24A33.07,33.07,0,0,0,59,29.8a25.76,25.76,0,0,0-9.4,3.6C46.92,35.22,45.89,38,45.15,41c-.52,2.08,5.3,1.22,5.79-.74Z" style="fill:#ce010f"/><path d="M54.55,32.45A33.68,33.68,0,0,1,66.87,15.08a3.93,3.93,0,0,1,3.8-.37,4.16,4.16,0,0,0,3-.11c1.56-.71,3.4-1.81,4.82-.84.6.41.93,1.12,1.46,1.63,1.47,1.45,3.88,1,5.89.54s4.6-.51,5.63,1.28a8.81,8.81,0,0,0,.87,1.67c1.41,1.51,4.7-.32,5.7,1.48.41.75.11,1.73.51,2.47.94,1.75,4,.18,5.5,1.46,1.19,1,.62,3,1.45,4.36s2.56,1.43,3.89,2.13a6.4,6.4,0,0,1,2.65,2.93,5,5,0,0,1,.16,4.8c-.89,1.41-3.29,1.8-4.2.4a4.86,4.86,0,0,1-6.19,3.89,11.83,11.83,0,0,0-1.88-.7c-2.58-.44-4.6,3-7.18,2.59-1.44-.21-2.62-1.59-4.07-1.42S86.42,45,85,45.43c-2.21.63-4-2-6.32-2.28-2.49-.33-4.86,2.21-7.27,1.47-1.66-.5-2.75-2.46-4.49-2.52-1.22,0-2.41.92-3.58.55-1.44-.45-1.7-2.55-3-3.27-.91-.48-2-.17-3-.45a3.64,3.64,0,0,1-2.38-3.24c-.14-1.42-.73-2.14-.31-3.5" style="fill:#eeeee8"/><path d="M56,32.23A33.29,33.29,0,0,1,65.65,17.1c.56-.5,1.13-1,1.72-1.42a2,2,0,0,1,2.12-.35,7.09,7.09,0,0,0,4.39-.15c.71-.26,1.36-.64,2.05-.92.93-.36,1.43.12,2,.8a4.56,4.56,0,0,0,3.34,2,12.66,12.66,0,0,0,3.83-.32c1.24-.25,2.65-.61,3.86,0s1.24,2.09,2.25,2.93a4.79,4.79,0,0,0,3.13.63c1.14,0,2.23-.18,2.5,1.23.22,1.1.08,2.14,1.28,2.67a7.35,7.35,0,0,0,3,.3c1.53,0,2.13.7,2.37,2.18s.34,2.67,1.67,3.49,2.7.9,3.82,1.83a6.87,6.87,0,0,1,2.34,4.42,3.43,3.43,0,0,1-.57,2.47c-.5.53-.94.11-1.34-.42s-2.7.08-2.8.75a4.12,4.12,0,0,1-1.38,2.63,2.34,2.34,0,0,1-2.76.19,6.31,6.31,0,0,0-5.74.4c-.79.42-1.49,1-2.27,1.4-1,.55-1.76-.15-2.67-.61a5.3,5.3,0,0,0-5.65.68,7.31,7.31,0,0,0-1.06.85l-.27.2c.27,0,.29,0,0-.06a2.53,2.53,0,0,1-.75-.24c-.93-.41-1.74-1.06-2.64-1.51-2-1-4.11-.59-6.11.2-.83.32-1.81,1-2.72.74s-1.82-1.25-2.7-1.82a4.18,4.18,0,0,0-2.37-.76c-1,0-2.68,1-3.52.3s-1-1.64-1.69-2.33a3.9,3.9,0,0,0-2.9-1,3,3,0,0,1-3-2.38,8.94,8.94,0,0,1-.45-4c.2-.81-2.67-.38-2.88.45a7.21,7.21,0,0,0,.25,3.26A4.82,4.82,0,0,0,55,39c1,.78,2.13.59,3.31.78S60,41,60.69,42a2.88,2.88,0,0,0,2.13,1.41,5.29,5.29,0,0,0,1.77-.15c.7-.15,1.4-.58,2.12-.32,1.05.38,1.81,1.43,2.79,2a4.94,4.94,0,0,0,3.19.46,13.88,13.88,0,0,0,3.22-1,6,6,0,0,1,1.53-.53,4,4,0,0,1,2.08.73c2.06,1.18,3.78,2.19,6.21,1.27a10.62,10.62,0,0,0,2.66-1.74l.28-.2c-.25.12-.2.19.15.22a4.89,4.89,0,0,0,.73.35,9.18,9.18,0,0,0,1.74.81c2.18.61,4.31-.52,6.09-1.66a4.94,4.94,0,0,1,1.41-.83c.53-.1,1.37.49,1.89.66a6.55,6.55,0,0,0,3.67.07c2.39-.58,4.75-2.22,5.13-4.81l-2.8.75c1.61,2.11,5.81.85,7-1.15,1.65-2.76-.44-6.79-3.07-8.12-1.44-.73-3.34-.86-3.92-2.61-.42-1.25-.12-2.83-1.23-3.78-.92-.79-2.3-.73-3.43-.72a2.73,2.73,0,0,1-1.67-.27c-.71-.53-.47-1.55-.65-2.3-.3-1.29-1.5-1.61-2.68-1.66-1.45-.06-2.91.43-3.67-1.14a3.88,3.88,0,0,0-2.95-2.54,11.05,11.05,0,0,0-4.47.18c-1.72.36-3.54.76-4.84-.72A5.19,5.19,0,0,0,79.46,13a4.17,4.17,0,0,0-2.29-.25,9.84,9.84,0,0,0-2.49.71c-1,.43-1.71.94-2.84.63a7.13,7.13,0,0,0-4.8.15,16.73,16.73,0,0,0-4.67,3.53,34.26,34.26,0,0,0-9.25,14.91c-.24.76,2.62.38,2.87-.45Z" style="fill:#ce010f"/><path d="M36.55,64.73,36,66.17a.41.41,0,0,0-.06.3.38.38,0,0,0,.09.28.92.92,0,0,0,.62.28,1.67,1.67,0,0,0,.85-.15l.24-.14a1,1,0,0,0,.33-.36l.59-1.45a.38.38,0,0,0,.06-.29.36.36,0,0,0-.1-.28.93.93,0,0,0-.61-.29,1.66,1.66,0,0,0-.85.16l-.24.14a1,1,0,0,0-.33.36Z" style="fill:#eeeee8"/><path d="M28.65,74.16a3,3,0,0,0,.52,2.63" style="fill:#4c5a27"/><path d="M27.55,74.24a3.56,3.56,0,0,0,.63,3,1.25,1.25,0,0,0,1.48.16c.37-.19.85-.68.51-1.13a2.85,2.85,0,0,1-.33-.52l.09.19a3.15,3.15,0,0,1-.29-1.12v.21a3,3,0,0,1,.1-1,.58.58,0,0,0-.26-.55,1.23,1.23,0,0,0-.75-.17,1.49,1.49,0,0,0-.81.3l-.19.18a.75.75,0,0,0-.19.4Z" style="fill:#eeeee8"/><path d="M35.3,75.9a2.75,2.75,0,0,0,.89,1.74" style="fill:#4c5a27"/><path d="M34.21,76.19a3.2,3.2,0,0,0,.37,1.13,3.41,3.41,0,0,0,.76.93.73.73,0,0,0,.34.12.9.9,0,0,0,.4,0,1.62,1.62,0,0,0,.82-.29.87.87,0,0,0,.38-.56v-.2A.52.52,0,0,0,37,77l0,0,.15.14a3,3,0,0,1-.59-.79l.09.18a2.85,2.85,0,0,1-.28-.93c0-.2-.29-.36-.45-.42a1.47,1.47,0,0,0-.83,0,1.55,1.55,0,0,0-.71.41l-.13.19a.56.56,0,0,0,0,.4Z" style="fill:#eeeee8"/><path d="M35.91,89.57a4.17,4.17,0,0,0,.24,2.34" style="fill:#4c5a27"/><path d="M34.83,89.74a4.4,4.4,0,0,0,.24,2.46c.06.15.25.19.39.21a2.22,2.22,0,0,0,.81-.09A2.17,2.17,0,0,0,37,92c.1-.08.3-.24.24-.38a4.19,4.19,0,0,1-.31-1.88v.12L37,89.4c0-.16,0-.24-.19-.29a1.51,1.51,0,0,0-.7,0,2.61,2.61,0,0,0-.83.27l-.2.12a.64.64,0,0,0-.23.26Z" style="fill:#eeeee8"/><path d="M40.54,82.59v1.16" style="fill:#4c5a27"/><path d="M39.46,82.88V84a.2.2,0,0,0,.14.15.45.45,0,0,0,.26.09,2.29,2.29,0,0,0,.37,0,1.56,1.56,0,0,0,.43-.08,2,2,0,0,0,.74-.33l.14-.14a.31.31,0,0,0,.09-.27V82.3a.2.2,0,0,0-.14-.15.62.62,0,0,0-.26-.09,2.41,2.41,0,0,0-.38,0,2,2,0,0,0-.43.08,1.81,1.81,0,0,0-.73.34l-.15.13a.3.3,0,0,0-.08.27Z" style="fill:#eeeee8"/><path d="M46.07,76.77v1.75" style="fill:#4c5a27"/><path d="M45,76.88v1.74a.36.36,0,0,0,.05.27.35.35,0,0,0,.2.21,1.16,1.16,0,0,0,.73.13,1.62,1.62,0,0,0,.82-.29l.19-.16a.68.68,0,0,0,.2-.37V76.67a.32.32,0,0,0,0-.27.33.33,0,0,0-.19-.21,1.17,1.17,0,0,0-.73-.13,1.59,1.59,0,0,0-.82.29l-.2.16a.75.75,0,0,0-.2.37Z" style="fill:#eeeee8"/><path d="M54.5,76.48v1.16" style="fill:#4c5a27"/><path d="M53.42,76.77v1.17a.2.2,0,0,0,.13.14.5.5,0,0,0,.27.08,2.29,2.29,0,0,0,.37,0,2,2,0,0,0,.43-.08,1.94,1.94,0,0,0,.73-.33l.15-.14a.31.31,0,0,0,.09-.26V76.19a.22.22,0,0,0-.14-.14.5.5,0,0,0-.26-.08,1.21,1.21,0,0,0-.38,0,1.71,1.71,0,0,0-.43.08,2,2,0,0,0-.73.33l-.15.13a.29.29,0,0,0-.08.26Z" style="fill:#eeeee8"/><path d="M58.06,69.24a2.74,2.74,0,0,0,.42,2.66" style="fill:#4c5a27"/><path d="M57,69.4a3,3,0,0,0,.49,2.9c.09.12.44.12.56.12a2.69,2.69,0,0,0,.85-.18,1.48,1.48,0,0,0,.6-.37c.09-.13.13-.23,0-.36l-.12-.17.07.1A2.87,2.87,0,0,1,59,69.71v.13a2.85,2.85,0,0,1,.16-.77c.06-.15-.07-.26-.19-.3a1.55,1.55,0,0,0-.71,0,2.64,2.64,0,0,0-.82.27c-.16.09-.37.21-.43.39Z" style="fill:#eeeee8"/><path d="M59.31,65l.58.58a.48.48,0,0,0,.25.14.8.8,0,0,0,.34.07,1.87,1.87,0,0,0,.42,0,2.23,2.23,0,0,0,.44-.13l.24-.13a1,1,0,0,0,.33-.31L62,65a.33.33,0,0,0-.08-.3l-.58-.58a.45.45,0,0,0-.25-.14.8.8,0,0,0-.34-.07,1.53,1.53,0,0,0-.43,0,1.64,1.64,0,0,0-.43.13l-.24.12a1.13,1.13,0,0,0-.34.31l-.07.17a.33.33,0,0,0,.08.3Z" style="fill:#eeeee8"/><path d="M50.71,72.69a1.25,1.25,0,0,0-.27,1.17" style="fill:#4c5a27"/><path d="M49.73,72.78a1.49,1.49,0,0,0-.37.66,1.32,1.32,0,0,0,0,.71.14.14,0,0,0,.12.1.58.58,0,0,0,.26,0,2.19,2.19,0,0,0,.36,0,3,3,0,0,0,.43-.08,2.83,2.83,0,0,0,.74-.31c.09-.06.3-.17.26-.31a1.18,1.18,0,0,1,0-.53l0,.1a1.31,1.31,0,0,1,.27-.6l-.09.11,0,0a.18.18,0,0,0,.09-.16.08.08,0,0,0,0-.12.46.46,0,0,0-.23-.06.86.86,0,0,0-.32,0,3.08,3.08,0,0,0-.85.19l-.25.1a1.65,1.65,0,0,0-.36.22Z" style="fill:#eeeee8"/><path d="M46.66,89.28a3.22,3.22,0,0,0,.26,2" style="fill:#4c5a27"/><path d="M45.57,89.4a3.69,3.69,0,0,0,.26,2.22.34.34,0,0,0,.16.21.54.54,0,0,0,.27.14,1.52,1.52,0,0,0,.82,0,1.48,1.48,0,0,0,.72-.38c.11-.13.29-.34.2-.53a3.35,3.35,0,0,1-.31-1.29v.18a3.91,3.91,0,0,1,.07-.76.45.45,0,0,0-.24-.44,1.23,1.23,0,0,0-.73-.11,1.75,1.75,0,0,0-.82.28.93.93,0,0,0-.4.51Z" style="fill:#eeeee8"/><path d="M50.13,83.75a1.71,1.71,0,0,0,.6,1.45" style="fill:#4c5a27"/><path d="M49,83.84a2.2,2.2,0,0,0,.14,1,2.73,2.73,0,0,0,.29.53,2.24,2.24,0,0,0,.43.44.68.68,0,0,0,.33.13,1.12,1.12,0,0,0,.41,0,1.24,1.24,0,0,0,.43-.11,1,1,0,0,0,.38-.19.9.9,0,0,0,.39-.58l0-.2a.57.57,0,0,0-.24-.33l-.06,0,.16.15a1.85,1.85,0,0,1-.37-.51l.09.19a1.7,1.7,0,0,1-.17-.65v.2a1,1,0,0,1,0-.24c0-.53-.56-.75-1-.7a1.59,1.59,0,0,0-.82.29,1,1,0,0,0-.38.58Z" style="fill:#eeeee8"/><path d="M55.6,88.72l.89,2.61" style="fill:#4c5a27"/><path d="M54.51,89l.9,2.61c.17.5.83.59,1.28.45a1.33,1.33,0,0,0,.71-.42.69.69,0,0,0,.18-.61l-.9-2.61c-.17-.5-.83-.59-1.28-.45a1.33,1.33,0,0,0-.71.42.67.67,0,0,0-.18.61Z" style="fill:#eeeee8"/><path d="M60.34,82a7.68,7.68,0,0,0,.24,3.2" style="fill:#4c5a27"/><path d="M59.24,82.13a8.57,8.57,0,0,0,.25,3.38.59.59,0,0,0,.44.34,1.74,1.74,0,0,0,1.53-.41.59.59,0,0,0,.21-.52,7.49,7.49,0,0,1-.31-2v.18a7.61,7.61,0,0,1,.07-1.26c.06-.5-.6-.59-1-.55a1.8,1.8,0,0,0-.82.29.84.84,0,0,0-.41.5Z" style="fill:#eeeee8"/><path d="M62.11,75.35a.83.83,0,0,0,.53,1.17" style="fill:#4c5a27"/><path d="M61.08,75.26a1.55,1.55,0,0,0-.13.36.57.57,0,0,0,0,.18,1.35,1.35,0,0,0,.09.56,1.44,1.44,0,0,0,.31.46,1.4,1.4,0,0,0,.3.23,1.58,1.58,0,0,0,.38.15,1,1,0,0,0,.38,0,1.32,1.32,0,0,0,.44,0,1.42,1.42,0,0,0,.4-.17,1,1,0,0,0,.31-.24.56.56,0,0,0,.19-.55.58.58,0,0,0-.44-.39l-.14,0,.21.09a.94.94,0,0,1-.18-.12l.15.14a1.39,1.39,0,0,1-.21-.27l.09.17a1,1,0,0,1-.09-.36v.19a.86.86,0,0,1,0-.28l-.06.19a.61.61,0,0,1,0-.12.48.48,0,0,0,0-.54.56.56,0,0,0-.25-.18,1.06,1.06,0,0,0-.35-.09,1.81,1.81,0,0,0-.86.16,1.27,1.27,0,0,0-.57.48Z" style="fill:#eeeee8"/><path d="M65.79,67.79l1.77,2.89" style="fill:#4c5a27"/><path d="M64.79,68.27l1.77,2.89a.94.94,0,0,0,.62.32,1.58,1.58,0,0,0,.86-.15c.42-.22.8-.65.51-1.13l-1.77-2.89a.85.85,0,0,0-.62-.31,1.47,1.47,0,0,0-.85.15c-.42.22-.81.65-.52,1.12Z" style="fill:#eeeee8"/><path d="M68.48,77.36A3.3,3.3,0,0,0,69,80" style="fill:#4c5a27"/><path d="M67.37,77.44a4,4,0,0,0,.66,3,.89.89,0,0,0,.62.31,1.49,1.49,0,0,0,.86-.14c.39-.21.84-.68.51-1.14a3.82,3.82,0,0,1-.29-.48l.1.19A3.36,3.36,0,0,1,69.5,78v.21a3.39,3.39,0,0,1,.07-.9.63.63,0,0,0-.27-.56,1.15,1.15,0,0,0-.74-.17,1.27,1.27,0,0,0-1.2.89Z" style="fill:#eeeee8"/><path d="M66.72,88.7v1.45" style="fill:#4c5a27"/><path d="M65.63,89v1.45c0,.12.34.13.38.13a2.71,2.71,0,0,0,.79-.12,2.78,2.78,0,0,0,.74-.29c.11-.07.26-.15.26-.3V88.4c0-.12-.34-.12-.37-.12a3,3,0,0,0-.79.11,3.09,3.09,0,0,0-.75.3c-.11.07-.26.15-.26.3Z" style="fill:#eeeee8"/><path d="M67,96.26V98" style="fill:#4c5a27"/><path d="M65.92,96.55v1.74c0,.17.31.26.41.27a1.84,1.84,0,0,0,.81,0,1.92,1.92,0,0,0,.73-.36L68,98a.33.33,0,0,0,.08-.3V96c0-.17-.31-.26-.41-.27a1.85,1.85,0,0,0-.81,0,2,2,0,0,0-.73.36l-.14.14a.37.37,0,0,0-.08.3Z" style="fill:#eeeee8"/><path d="M60,96.84V98" style="fill:#4c5a27"/><path d="M58.94,97.13v1.16a.17.17,0,0,0,.13.1.53.53,0,0,0,.25,0,2.31,2.31,0,0,0,.37,0A3.22,3.22,0,0,0,60.86,98c.11-.08.25-.16.25-.32V96.55a.14.14,0,0,0-.12-.1.58.58,0,0,0-.26,0,2.19,2.19,0,0,0-.36,0,2.05,2.05,0,0,0-.43.09,2.5,2.5,0,0,0-.74.3c-.12.07-.26.16-.26.31Z" style="fill:#eeeee8"/><path d="M55.65,102.08a1.89,1.89,0,0,1-.26,1.46" style="fill:#4c5a27"/><path d="M54.57,102.37c0,.1,0,.2,0,.3v-.19a2.07,2.07,0,0,1-.09.7l.06-.19a1.65,1.65,0,0,1-.22.44.53.53,0,0,0,0,.57.88.88,0,0,0,.61.29,1.6,1.6,0,0,0,.86-.16l.24-.14a1.07,1.07,0,0,0,.32-.35,2.31,2.31,0,0,0,.18-.35,3.5,3.5,0,0,0,.17-.55,2.43,2.43,0,0,0,0-.38,3.55,3.55,0,0,0-.06-.57.66.66,0,0,0-.45-.41,1.06,1.06,0,0,0-.39-.06,1.24,1.24,0,0,0-.43.06,1.38,1.38,0,0,0-.72.41.65.65,0,0,0-.18.58Z" style="fill:#eeeee8"/><path d="M51.59,95.38v1.46" style="fill:#4c5a27"/><path d="M50.51,95.68v1.45a.2.2,0,0,0,.14.15.41.41,0,0,0,.26.09,2,2,0,0,0,.81-.07,1.81,1.81,0,0,0,.73-.34l.14-.14a.29.29,0,0,0,.09-.27V95.09a.23.23,0,0,0-.14-.15.62.62,0,0,0-.27-.09,2.32,2.32,0,0,0-1.53.41l-.15.14a.32.32,0,0,0-.08.28Z" style="fill:#eeeee8"/><path d="M47.23,102.66v1.74" style="fill:#4c5a27"/><path d="M46.14,102.78v1.74a.28.28,0,0,0,0,.25.32.32,0,0,0,.18.18,1.22,1.22,0,0,0,.73.1,2,2,0,0,0,.82-.28l.19-.15a.65.65,0,0,0,.21-.34v-1.75a.26.26,0,0,0,0-.24.35.35,0,0,0-.19-.19,1.28,1.28,0,0,0-.72-.1,1.88,1.88,0,0,0-.83.29l-.19.15a.7.7,0,0,0-.21.34Z" style="fill:#eeeee8"/><path d="M41.12,94.51v2.33" style="fill:#4c5a27"/><path d="M40,94.8v2.33c0,.15.32.22.4.23a2,2,0,0,0,.8-.07A2.17,2.17,0,0,0,42,97a.51.51,0,0,0,.23-.4V94.22c0-.15-.32-.22-.4-.23a2,2,0,0,0-.81.07,2.21,2.21,0,0,0-.73.34.51.51,0,0,0-.23.4Z" style="fill:#eeeee8"/><path d="M36.49,102.08a3,3,0,0,0,.23,2" style="fill:#4c5a27"/><path d="M35.41,102.22a3.27,3.27,0,0,0,.22,2.2.3.3,0,0,0,.15.18.52.52,0,0,0,.27.1,1.86,1.86,0,0,0,.81,0,1.88,1.88,0,0,0,.72-.36c.11-.1.3-.29.22-.45a3.13,3.13,0,0,1-.31-1.38v.15a3,3,0,0,1,.09-.67.32.32,0,0,0-.22-.37,1.33,1.33,0,0,0-.71-.07,2.35,2.35,0,0,0-.82.28c-.17.11-.37.24-.42.44Z" style="fill:#eeeee8"/><path d="M30.36,93.93v1.16" style="fill:#4c5a27"/><path d="M29.27,94v1.16a.34.34,0,0,0,.05.28.39.39,0,0,0,.2.22.66.66,0,0,0,.33.12,1.08,1.08,0,0,0,.4,0,1.7,1.7,0,0,0,.82-.3l.19-.16a.74.74,0,0,0,.2-.38V93.83a.39.39,0,0,0-.05-.28.47.47,0,0,0-.2-.22.93.93,0,0,0-.33-.12,1.12,1.12,0,0,0-.41,0,1.69,1.69,0,0,0-.81.29l-.2.17a.76.76,0,0,0-.19.38Z" style="fill:#eeeee8"/><path d="M27.16,87.82v2" style="fill:#4c5a27"/><path d="M26.08,88.11v2c0,.12.34.12.37.12a2.61,2.61,0,0,0,.79-.12,2.85,2.85,0,0,0,.75-.29c.11-.07.26-.15.26-.29v-2c0-.12-.34-.12-.37-.12a3,3,0,0,0-.79.12,2.85,2.85,0,0,0-.75.29c-.11.07-.26.15-.26.29Z" style="fill:#eeeee8"/><path d="M31.57,81.13,31.85,84" style="fill:#4c5a27"/><path d="M30.48,81.42l.29,2.91c0,.19.29.33.44.37a1.72,1.72,0,0,0,1.53-.41.65.65,0,0,0,.2-.54l-.29-2.91c0-.19-.29-.33-.44-.37a1.74,1.74,0,0,0-1.53.41.65.65,0,0,0-.2.54Z" style="fill:#eeeee8"/><path d="M22.51,78.81a3.55,3.55,0,0,0-.28,2" style="fill:#4c5a27"/><path d="M21.43,79a3.89,3.89,0,0,0-.29,2.18c0,.18.29.27.42.29a1.71,1.71,0,0,0,.81,0A1.67,1.67,0,0,0,23.1,81a.54.54,0,0,0,.22-.46,3.27,3.27,0,0,1,0-.54v.15a3.81,3.81,0,0,1,.33-1.49c.07-.16-.1-.32-.22-.38a1.33,1.33,0,0,0-.71-.07,2,2,0,0,0-.83.28l-.2.14a.62.62,0,0,0-.21.31Z" style="fill:#eeeee8"/><path d="M28.82,100.07l.93,2.6" style="fill:#4c5a27"/><path d="M27.74,100.36l.92,2.6c.18.5.84.59,1.29.45a1.39,1.39,0,0,0,.71-.42.7.7,0,0,0,.18-.61l-.93-2.6c-.18-.5-.83-.59-1.29-.46a1.41,1.41,0,0,0-.71.43.68.68,0,0,0-.17.61Z" style="fill:#eeeee8"/><path d="M32.66,108.79,35,112" style="fill:#4c5a27"/><path d="M31.57,109.08l2.32,3.2a.44.44,0,0,0,.38.16,2.41,2.41,0,0,0,.8-.1,2.83,2.83,0,0,0,.74-.31c.06,0,.33-.22.25-.33l-2.32-3.2a.44.44,0,0,0-.38-.16,2.41,2.41,0,0,0-.8.1,2.53,2.53,0,0,0-.74.31c-.06,0-.33.22-.25.33Z" style="fill:#eeeee8"/><path d="M43.16,108.76v2" style="fill:#4c5a27"/><path d="M42.07,108.88v2a.28.28,0,0,0,0,.25.39.39,0,0,0,.19.19,1.23,1.23,0,0,0,.73.11,1.88,1.88,0,0,0,.82-.29L44,111a.64.64,0,0,0,.21-.35v-2a.29.29,0,0,0,0-.24.37.37,0,0,0-.19-.2,1.41,1.41,0,0,0-.73-.11,1.88,1.88,0,0,0-.82.29l-.19.16a.61.61,0,0,0-.21.34Z" style="fill:#eeeee8"/><path d="M48.18,115.45l.27,3.2" style="fill:#4c5a27"/><path d="M47.09,115.74l.27,3.2c0,.12.33.12.38.12a3.6,3.6,0,0,0,.79-.12,2.81,2.81,0,0,0,.74-.3c.1-.06.28-.15.27-.29l-.27-3.2c0-.12-.33-.12-.38-.12a3.11,3.11,0,0,0-.79.13,2.78,2.78,0,0,0-.74.29c-.1.06-.28.15-.27.29Z" style="fill:#eeeee8"/><path d="M40,116.62a2.7,2.7,0,0,0,.89,1.73" style="fill:#4c5a27"/><path d="M38.86,116.91a3,3,0,0,0,1,1.86.86.86,0,0,0,.58.18,2.05,2.05,0,0,0,.85-.17,1.24,1.24,0,0,0,.59-.41c.08-.14.14-.31,0-.44a2.48,2.48,0,0,1-.52-.64l.07.13a2.7,2.7,0,0,1-.36-1.1c0-.17-.3-.25-.42-.28a1.85,1.85,0,0,0-.81,0,1.92,1.92,0,0,0-.73.36.55.55,0,0,0-.22.46Z" style="fill:#eeeee8"/><path d="M45.49,123l.58,1.46" style="fill:#4c5a27"/><path d="M44.4,123.3l.58,1.46c.06.15.26.18.4.2a2.19,2.19,0,0,0,.8-.09,2.17,2.17,0,0,0,.73-.32c.1-.08.3-.23.24-.37l-.58-1.46c-.06-.15-.25-.18-.39-.2a2.73,2.73,0,0,0-1.54.41c-.09.08-.3.23-.24.37Z" style="fill:#eeeee8"/><path d="M53.34,120.69l-.58,1.16" style="fill:#4c5a27"/><path d="M52.31,120.62l-.58,1.16a.32.32,0,0,0-.06.27.33.33,0,0,0,.08.25.48.48,0,0,0,.26.16.7.7,0,0,0,.35.09,1.92,1.92,0,0,0,.85-.16,1.25,1.25,0,0,0,.57-.47l.58-1.16a.39.39,0,0,0,.07-.27.29.29,0,0,0-.09-.25.47.47,0,0,0-.25-.17.85.85,0,0,0-.35-.08,1.72,1.72,0,0,0-.86.16,1.14,1.14,0,0,0-.57.47Z" style="fill:#eeeee8"/><path d="M49.54,127.38a3.83,3.83,0,0,0,.61,2" style="fill:#4c5a27"/><path d="M48.46,127.67a4.12,4.12,0,0,0,.68,2.17c.1.15.44.2.59.2a1.94,1.94,0,0,0,.86-.16,1.27,1.27,0,0,0,.58-.44l.07-.16a.35.35,0,0,0-.08-.31,1.74,1.74,0,0,1-.11-.18l.08.14a3.85,3.85,0,0,1-.5-1.85c0-.17-.31-.29-.43-.31a1.59,1.59,0,0,0-.81,0,1.57,1.57,0,0,0-.72.38l-.14.16a.39.39,0,0,0-.07.33Z" style="fill:#eeeee8"/><path d="M59.48,120.4l-.62,2" style="fill:#4c5a27"/><path d="M58.4,120.57l-.62,2c-.05.15.07.25.2.3a1.51,1.51,0,0,0,.7,0,2.61,2.61,0,0,0,.83-.27c.16-.09.37-.21.43-.4l.61-2c.05-.16-.06-.25-.19-.31a1.55,1.55,0,0,0-.71,0,2.4,2.4,0,0,0-.82.27c-.16.09-.38.2-.43.39Z" style="fill:#eeeee8"/><path d="M55.37,128a2.74,2.74,0,0,0-.58,1.74" style="fill:#4c5a27"/><path d="M54.36,127.92a3.48,3.48,0,0,0-.52,1,3.27,3.27,0,0,0-.13,1.08c0,.18.3.29.42.31a1.71,1.71,0,0,0,.81,0,1.64,1.64,0,0,0,.73-.37l.14-.16a.4.4,0,0,0,.07-.32v.1a2.66,2.66,0,0,1,.25-1.14l-.08.17a2.4,2.4,0,0,1,.34-.55.37.37,0,0,0,0-.46.91.91,0,0,0-.59-.21,1.83,1.83,0,0,0-1.43.6Z" style="fill:#eeeee8"/><path d="M56,114a5.06,5.06,0,0,0-.59,2.61" style="fill:#4c5a27"/><path d="M54.92,113.88a5.65,5.65,0,0,0-.65,2.82.39.39,0,0,0,.06.3.41.41,0,0,0,.2.23,1.14,1.14,0,0,0,.74.16,1.55,1.55,0,0,0,.82-.3c.16-.12.39-.34.38-.56a5.23,5.23,0,0,1,.23-1.76l-.06.21a4.7,4.7,0,0,1,.36-.87.57.57,0,0,0,0-.58.9.9,0,0,0-.62-.3,1.47,1.47,0,0,0-1.42.65Z" style="fill:#eeeee8"/><path d="M52.77,107.6a3.28,3.28,0,0,0,.25,2.05" style="fill:#4c5a27"/><path d="M51.67,107.67a3.74,3.74,0,0,0,0,1.25,3.07,3.07,0,0,0,.3,1,.43.43,0,0,0,.17.28.61.61,0,0,0,.3.2,1.41,1.41,0,0,0,1.53-.41c.12-.17.27-.44.17-.65a3.57,3.57,0,0,1-.31-1.15l0,.22a3.41,3.41,0,0,1,.06-.9.67.67,0,0,0-.28-.58,1.18,1.18,0,0,0-.75-.2,1.4,1.4,0,0,0-.81.31l-.19.18a.86.86,0,0,0-.18.43Z" style="fill:#eeeee8"/><path d="M59.17,108.48a2.51,2.51,0,0,0,.26,1.74" style="fill:#4c5a27"/><path d="M58.08,108.6a2.85,2.85,0,0,0,.27,1.92.26.26,0,0,0,.15.19.49.49,0,0,0,.27.13,1.75,1.75,0,0,0,.82,0,1.67,1.67,0,0,0,.72-.38l.14-.16a.46.46,0,0,0,.07-.34,2.58,2.58,0,0,1-.32-1.19v.17a2.09,2.09,0,0,1,0-.56.4.4,0,0,0-.23-.42,1.27,1.27,0,0,0-.72-.09,1.75,1.75,0,0,0-.82.28.92.92,0,0,0-.41.48Z" style="fill:#eeeee8"/><path d="M63.52,114.29v3.49" style="fill:#4c5a27"/><path d="M62.43,114.58v3.49c0,.16.31.26.42.28a1.86,1.86,0,0,0,.81-.06,1.73,1.73,0,0,0,.72-.35.55.55,0,0,0,.22-.45V114c0-.17-.31-.26-.41-.28a1.85,1.85,0,0,0-.81,0,2,2,0,0,0-.73.36.56.56,0,0,0-.22.45Z" style="fill:#eeeee8"/><path d="M65.55,107.89v1.75" style="fill:#4c5a27"/><path d="M64.47,108.18v1.75c0,.11.34.11.37.11a2.66,2.66,0,0,0,.79-.12,3,3,0,0,0,.75-.29c.1-.06.26-.14.26-.29V107.6c0-.12-.34-.12-.37-.12a3,3,0,0,0-.79.12,2.85,2.85,0,0,0-.75.29c-.11.07-.26.15-.26.29Z" style="fill:#eeeee8"/><path d="M64.07,100.33l-.29,2.32" style="fill:#4c5a27"/><path d="M63,100.41l-.29,2.33c-.06.53.58.73,1,.69a1.64,1.64,0,0,0,.82-.3.9.9,0,0,0,.38-.57l.29-2.32c.07-.53-.58-.73-1-.69a1.6,1.6,0,0,0-.82.3.9.9,0,0,0-.39.56Z" style="fill:#eeeee8"/><path d="M45.15,25.23A20.34,20.34,0,0,0,36,22.12c-1.66-.21-3.33-.33-5-.45s-3.43-.26-4.74-1.43-2-2.32-3.41-3.17a20.12,20.12,0,0,0-4.3-1.82c-2.84-.95-6.17-2.05-7.33-5.11-.39-1-3.25-.15-2.9.78,1.09,2.86,3.88,4.34,6.63,5.29a42,42,0,0,1,4.58,1.7c1.74.85,2.64,2.21,4,3.46,2.44,2.19,6.11,1.87,9.15,2.15,3.56.33,7.09,1,10.09,3.1.76.53,3.44-.61,2.3-1.39Z" style="fill:#ce010f"/><path d="M56.2,32.39c3.45-1.77,7.12-3.72,11.06-4S74.85,30.32,78.75,31c7,1.3,15.27-.31,21,4.88.61.56,3.26-.53,2.72-1-6.49-5.91-15.86-3.32-23.6-5.58-2-.59-4-1.51-6-1.94a17.34,17.34,0,0,0-6.22-.06c-4.29.69-8.25,2.61-12.09,4.57-.39.2-.84.56-.32.86s1.58-.12,2-.35Z" style="fill:#ce010f"/><path d="M90.46,26.46a43.36,43.36,0,0,0-8.79,4.29c-.27.17-.51.62,0,.73A10.17,10.17,0,0,1,87.92,36c.49.8,3.22-.25,2.9-.78a11,11,0,0,0-6.84-5l0,.73a37,37,0,0,1,7.58-3.67c.27-.09,1.23-.54.83-.95s-1.47-.05-1.88.1Z" style="fill:#ce010f"/><path d="M79.56,24.79a37.78,37.78,0,0,0-9,3.6s-.45.27-.35.39l4.44,5.31c.31.36,1.17.1,1.56,0,.11,0,1.55-.52,1.34-.77L73.15,28l-.35.39a32.72,32.72,0,0,1,3.53-1.7,27.16,27.16,0,0,1,3.44-1.12c.26-.07,1.42-.36,1.34-.78s-1.41,0-1.55,0Z" style="fill:#ce010f"/><path d="M15.65,10.37v4.47a4.87,4.87,0,0,1,0,.54.57.57,0,0,1,0,.18l0-.07a.83.83,0,0,1,.55-.29.87.87,0,0,1,.65-.21,13.26,13.26,0,0,1-1.41,0H11a2.24,2.24,0,0,0-1.91.81c-.35.58.29.94.81.94H15a5.51,5.51,0,0,0,2.25-.27,1.89,1.89,0,0,0,1.3-1.42c.05-.52,0-1.07,0-1.59V10c0-.65-.74-.77-1.27-.7a2.54,2.54,0,0,0-1.1.38c-.19.14-.54.38-.54.65Z" style="fill:#ce010f"/><path d="M24.66,16.25l-.05,6,2.64-.95a21.55,21.55,0,0,0-6.94,0,4.27,4.27,0,0,0-1.1.35c-.17.08-.52.25-.59.45-.2.5,1,.32,1.16.3l.34-.06c.11,0,.35-.06.11,0a5.2,5.2,0,0,1,.69-.07l.69-.05s.36,0,.16,0h.4a18.11,18.11,0,0,1,2.7.22,3.38,3.38,0,0,0,1.69-.23c.31-.11,1-.32,1-.72l0-6c0-.17-.44-.21-.51-.21A3.47,3.47,0,0,0,26,15.4a3.19,3.19,0,0,0-1,.41c-.16.11-.33.22-.33.44Z" style="fill:#ce010f"/><path d="M31.86,19.64,35,23.75l.21-.7a22.21,22.21,0,0,1-2.72,1.62l-.35.17-.14.07-.83.37c-.51.21-1,.41-1.57.59-.3.11-1.23.61-.81,1s1.44.12,1.9,0a27.69,27.69,0,0,0,6.8-3.49c.25-.17.42-.43.22-.7l-3.15-4.11c-.13-.18-.58-.19-.76-.19a2.94,2.94,0,0,0-1.13.24c-.36.15-1.18.55-.81,1Z" style="fill:#ce010f"/><path d="M65.32,23.88a14.58,14.58,0,0,0-4.2,5.77.13.13,0,0,0,.05.21q2.22,1.55,4.41,3.13a1.3,1.3,0,0,0,.73.06,5,5,0,0,0,1.13-.26c.16-.06,1.26-.48.88-.75-1.46-1.06-2.93-2.11-4.41-3.13l.06.21a13.77,13.77,0,0,1,4-5.51c.5-.41-.44-.42-.66-.4a3.87,3.87,0,0,0-2,.67Z" style="fill:#ce010f"/></g></g></svg>