<svg xmlns="http://www.w3.org/2000/svg" viewBox="0 0 92.68 108.91"><g id="f4dccb86-6eda-47e2-a3f9-b0559f2a99a7" data-name="Layer 2"><g id="b0b85ac6-8d8b-4c4e-9207-f3ef718356d4" data-name="Layer 1"><g id="e7750070-c95c-4bac-881f-a5df46743e7f" data-name="a8339046-75fd-4f1c-922a-ef933a26f439"><g id="a7cb8cbd-f3e3-449d-b59e-881287197161" data-name="e483938b-f097-43e3-9df4-9266096bebb3"><path d="M35.87,45.31c-5.41,2-11.06,4.22-14.83,8.6-4.81,5.56-5.6,13.73-3.85,20.87s5.71,13.5,9.61,19.73c2.06,3.31,4.18,6.66,7.13,9.2a38.28,38.28,0,0,0,5.32,3.61,5.72,5.72,0,0,0,3.38,1.15,5.75,5.75,0,0,0,3.29-2.09c4.77-4.9,9.7-10,11.79-16.56a42.76,42.76,0,0,0,1.52-8.63,100.61,100.61,0,0,0,.68-10.27,56.17,56.17,0,0,0-3-18.12,8.49,8.49,0,0,0-2.09-3.7,9.2,9.2,0,0,0-3.34-1.59c-5.27-1.65-10.73-3.32-16.2-2.59" style="fill:#ce010f"/><path d="M35.53,45c-5,1.87-10.18,3.87-14.07,7.64A20.61,20.61,0,0,0,15.57,66c-.86,11.6,6,22.14,12.08,31.44A30.92,30.92,0,0,0,33.16,104a29.23,29.23,0,0,0,3.46,2.5,18.9,18.9,0,0,0,3.86,2.14c2.46.84,4.43-.46,6.11-2.15,1.88-1.9,3.72-3.84,5.46-5.88,3.67-4.32,6.43-9.1,7.4-14.74a81.71,81.71,0,0,0,1.18-19,57.06,57.06,0,0,0-1.71-10.46c-.69-2.64-1.37-6.29-3.74-8a14.67,14.67,0,0,0-4.31-1.74c-1.74-.54-3.49-1.06-5.27-1.48a28.93,28.93,0,0,0-10.19-.77c-.83.1-1.38,1.1-.22,1a26.38,26.38,0,0,1,8.94.64,49,49,0,0,1,8.47,2.51c2.66,1.17,3.37,3.94,4.14,6.5a56.18,56.18,0,0,1,1.8,8.31,74.18,74.18,0,0,1-.14,17.93A45,45,0,0,1,57,89.48a26.07,26.07,0,0,1-3.3,6.87,49.17,49.17,0,0,1-4.76,6c-.79.86-1.6,1.71-2.42,2.56a13.89,13.89,0,0,1-3,2.78c-1.53.83-3.17-.48-4.44-1.25A33.43,33.43,0,0,1,35.42,104a26.39,26.39,0,0,1-5.24-5.77,117,117,0,0,1-8.46-14,38.4,38.4,0,0,1-4.49-14.81c-.33-5.32.88-10.94,4.34-15.12,3.69-4.47,9.37-6.58,14.63-8.56,1.09-.41.11-1-.67-.72Z" style="fill:#ce010f"/><path d="M37.89,41a69,69,0,0,0-15.57,1.54,25.42,25.42,0,0,0,9.15,1.86L22.35,49.7c4.77.17,9.87.26,13.92-2.27l2.17,9.28a14.19,14.19,0,0,0,2-9.58,15,15,0,0,0,11.17,3.4l-7-5.44a18.76,18.76,0,0,0,6.35,1,6.76,6.76,0,0,0,5.42-3,23.45,23.45,0,0,1-7.84-1.16,7.2,7.2,0,0,0,4.88-3.39,29.39,29.39,0,0,1-15.31,2" style="fill:#eeeee8"/><path d="M38.44,40.16a74,74,0,0,0-16.33,1.61c-.43.09-2,1.1-.94,1.51a28.05,28.05,0,0,0,9.75,2l-.36-1.35-9.12,5.29c-.85.49-.58,1.31.36,1.35,5.27.18,10.72.14,15.38-2.67l-2.36-.09L37,57.09c.26,1.08,2.45.27,2.81-.33a15.17,15.17,0,0,0,2.06-10l-2.79,1a16.76,16.76,0,0,0,12.33,3.68c.34,0,2.34-.81,1.53-1.44L45.9,44.55l-2.25,1.36c4.68,1.3,11,2,14-2.83.35-.56-.3-.93-.8-.92A23.89,23.89,0,0,1,49.34,41l-.67,1.6a9.31,9.31,0,0,0,6-4.11c.7-1.12-1.49-.88-1.94-.71a27.9,27.9,0,0,1-13.82,1.82,2.42,2.42,0,0,0-2,.55c-.39.4-.37,1,.3,1.1A33.47,33.47,0,0,0,54,39.13l-2-.71a5.58,5.58,0,0,1-3.74,2.67c-.77.16-1.91,1.22-.66,1.61a25.33,25.33,0,0,0,8.16,1.19L55,43c-2.09,3.34-6.42,2.15-9.55,1.29-.5-.14-3.17.67-2.22,1.41l7.06,5.44,1.53-1.43a13.8,13.8,0,0,1-10-3.14c-.68-.56-2.95-.21-2.79,1a13.88,13.88,0,0,1-1.87,9.14l2.8-.33L37.72,47c-.21-.91-1.9-.37-2.36-.09-3.72,2.24-8.28,2-12.46,1.88l.36,1.34,9.12-5.28c.84-.49.58-1.33-.36-1.35a24.64,24.64,0,0,1-8.56-1.72l-.93,1.51a67.56,67.56,0,0,1,14.81-1.43c.59,0,1.62-.19,1.9-.81s-.23-.92-.8-.93Z" style="fill:#ce010f"/><path d="M41,43.22c.31-3.5.51-7,.6-10.52,0-1.74.06-3.48,0-5.22a18.51,18.51,0,0,0-.34-4.87c-.79-2.76-3.75-4.81-5.89-6.49a56.61,56.61,0,0,0-8.2-5.31c-1.13-.6-3.07,0-4.09.63-.79.44-1.74,1.35-.58,2A50.83,50.83,0,0,1,30,18.31c2.05,1.62,5,3.59,5.6,6.29A21.74,21.74,0,0,1,35.91,29v4.72c-.08,3.45-.28,6.88-.59,10.31-.1,1.19,1.64,1.09,2.43,1s3.24-.7,3.34-1.82Z" style="fill:#ce010f"/><path d="M37.42,21.16c-.83-4.49.25-7.88-.58-12.36-.35-1.85-2.7-5-4.16-6.13S28.44,2,28.21,3.85A8.84,8.84,0,0,0,25.45,1.2a3,3,0,0,0-3.54.45c-.32.38-.57.92-1.07,1-.72.1-1.11-.87-1.78-1.16-1.38-.61-2.21,1.73-3.63,2.23-1.78.63-3.79-1.89-5.36-.85C9.39,3.3,9,4.33,8.21,4.31S7,3.32,6.3,3.12c-.93-.25-1.63.78-2.22,1.54s-2,1.27-2.33.38c-.61.6-.18,1.66.46,2.23S3.68,8.27,4,9c.69,1.64-1.17,3.9.12,5.13.68.65,1.86.47,2.59,1.07C8,16.35,6.82,18.88,8.08,20c1,.9,2.84.25,3.76,1.24s.16,3,1.26,3.79c.77.57,1.94.14,2.74.65,1.09.68.78,2.51,1.79,3.3s2.71-.21,4.14-.46c2.12-.37,4.29,1.32,6.35.68,1.36-.43,2.4-1.83,3.83-1.81.71,0,1.44.38,2.09.1a2.16,2.16,0,0,0,.91-1,36.6,36.6,0,0,0,2.44-5.09" style="fill:#eeeee8"/><path d="M38.87,20.77c-.53-3.06-.17-6.09-.26-9.17A12,12,0,0,0,38,7.53a13.82,13.82,0,0,0-1.69-2.9C35.13,3,33.76,1.37,31.62,1.24c-1.87-.12-4.45.69-4.86,2.79l2.79-.75C28.32,1.69,26.91.16,24.77,0a5.77,5.77,0,0,0-2.69.47,4.19,4.19,0,0,0-1.22.81,5.34,5.34,0,0,0-.39.44c-.09.11-.4.37-.2.3l1.14-.22c.21,0-.14-.19-.24-.29A5.13,5.13,0,0,0,20.64,1,2.45,2.45,0,0,0,19.39.57a4,4,0,0,0-2.89,1c-.36.3-.66.66-1,1a2.09,2.09,0,0,1-.53.5c.45-.22.1-.07-.16-.21a8.63,8.63,0,0,0-2.86-1,4.27,4.27,0,0,0-3,.8c-.2.15-1.09.87-1.09,1.12,1,0,1.27-.14.89-.42l-.22-.2A2.7,2.7,0,0,0,8,2.73a3.23,3.23,0,0,0-3.24,0,4.56,4.56,0,0,0-1.26,1c-.14.17-.45.42-.52.64l-.2.26c.51.2.63.15.36-.16C2.62,3.69.78,4.48.4,5a1.89,1.89,0,0,0,0,2.32c.6.9,1.91,1.29,2.21,2.39.47,1.68-1.4,3.7.25,5.12.7.6,1.7.44,2.41.94s.62,1.83.67,2.68c.13,2.25,1.46,2.66,3.44,3,2.39.38.78,3.21,2.53,4.32.82.52,2.22.13,2.87.8s.55,1.83,1.08,2.59c1.41,2,3.9.5,5.7.19,1.06-.17,2.22.4,3.23.63a6.84,6.84,0,0,0,3.48,0,7,7,0,0,0,1.61-.72,7.39,7.39,0,0,1,1.41-.91c.52-.15,1.16.14,1.75.12A4.06,4.06,0,0,0,34.9,28a6.33,6.33,0,0,0,2.27-3c.6-1.19,1.09-2.44,1.62-3.66.27-.62-1-.65-1.25-.62a2,2,0,0,0-1.64,1c-.43,1-.82,2-1.28,2.94q-.33.71-.72,1.38a5.46,5.46,0,0,1-.43.7c-.15.21.59.18-.25,0-2-.41-3.41.72-5,1.61-.84.48-1.71.11-2.59-.13a9.56,9.56,0,0,0-3.14-.46,15.46,15.46,0,0,0-2.78.68c-1.15.29-1.29-.69-1.58-1.6A2.87,2.87,0,0,0,17,25c-.79-.45-2.15-.08-2.76-.71s-.36-1.57-.47-2.22a2.36,2.36,0,0,0-1.13-1.79,6.64,6.64,0,0,0-2.24-.51C9.31,19.61,9,19,8.9,18c-.13-1.51.07-3-1.57-3.74-.84-.36-2.08-.25-2.21-1.41A15.29,15.29,0,0,1,5.6,10a2.72,2.72,0,0,0-.77-2.28C4.24,7.13,2.3,6.12,3.09,5L.4,5.6c.77,1.27,2.87.66,3.88.07A4.54,4.54,0,0,0,5.84,4.15c.46-.38.32-.46-.43-.22a6.4,6.4,0,0,1,.49.42,3.45,3.45,0,0,0,.64.5c1.37.75,3,0,4-1.07.14-.17.29-.34.45-.5-.6.06-.75.12-.43.17a5,5,0,0,0,1,.37,9.33,9.33,0,0,0,1.93.72,4.81,4.81,0,0,0,4.06-1.2c.21-.19,1.37-1.17,1.35-1.34-.95-.06-1.23,0-.82.26a1.38,1.38,0,0,1,.34.3,3.76,3.76,0,0,0,.82.67,2.83,2.83,0,0,0,2.21,0c.8-.28,1.06-.8,1.66-1.3.34-.28.06-.25.57-.25a2.47,2.47,0,0,1,1.21.57,10.84,10.84,0,0,1,2,2.17c.54.69,2.64.07,2.8-.75.34-1.75,2-.17,2.68.54A13.64,13.64,0,0,1,35.2,8.45c.72,1.93.58,4.28.52,6.3a33.63,33.63,0,0,0,.3,6.8c.17,1,3.08.28,2.9-.78Z" style="fill:#ce010f"/><path d="M41.91,32.49c.35-1.41.68-3.28,2-4.17a11.87,11.87,0,0,1,4.63-1.55,19.86,19.86,0,0,1,10.9,1.39,4.8,4.8,0,0,0,4.1-.55c.73-.45,1.81-1.69.52-2.24A27.37,27.37,0,0,0,48,23.85a22.49,22.49,0,0,0-8,3c-2.27,1.55-3.19,3.8-3.84,6.38-.51,2.08,5.31,1.22,5.8-.74Z" style="fill:#ce010f"/><path d="M44.25,26.31a27.07,27.07,0,0,1,9.93-14,3.13,3.13,0,0,1,3.06-.3,3.3,3.3,0,0,0,2.45-.1c1.26-.57,2.74-1.45,3.88-.67.49.33.75.9,1.18,1.32,1.18,1.16,3.12.78,4.75.43s3.7-.41,4.53,1a6.84,6.84,0,0,0,.7,1.34c1.14,1.22,3.79-.25,4.6,1.2.33.6.08,1.39.41,2,.76,1.41,3.21.14,4.43,1.18,1,.81.49,2.45,1.17,3.51s2.06,1.15,3.13,1.71a5.26,5.26,0,0,1,2.14,2.36,4.09,4.09,0,0,1,.12,3.87c-.72,1.14-2.65,1.46-3.38.32a3.92,3.92,0,0,1-4.49,3.26,4.7,4.7,0,0,1-.51-.12,10.3,10.3,0,0,0-1.52-.57c-2.07-.35-3.7,2.4-5.78,2.1C73.9,36,73,34.89,71.78,35s-1.85,1.43-3,1.75c-1.78.51-3.26-1.6-5.09-1.84-2-.26-3.92,1.78-5.86,1.19-1.34-.41-2.21-2-3.62-2-1,0-1.94.74-2.88.44-1.17-.37-1.37-2.06-2.45-2.63-.74-.39-1.65-.15-2.45-.37a2.92,2.92,0,0,1-1.92-2.61c-.11-1.14-.59-1.73-.25-2.82" style="fill:#eeeee8"/><path d="M45.69,26.09A26.68,26.68,0,0,1,53.6,13.8,10.29,10.29,0,0,1,55,12.68c.56-.33.77-.1,1.39.06a6,6,0,0,0,3.51-.25c1.16-.41,2-1.27,2.93-.08A3.73,3.73,0,0,0,65.34,14a9.62,9.62,0,0,0,3.21-.18,5.94,5.94,0,0,1,2.93-.19c1.21.39,1.12,1.51,1.89,2.3a3.24,3.24,0,0,0,2.32.68c.64,0,1.68-.26,2.14.31.65.8,0,2,1,2.65,1.56,1.11,4-.57,4.54,1.93.2,1,.19,2,1,2.78s2.08.82,3,1.42a5.41,5.41,0,0,1,2.14,3.09,3.5,3.5,0,0,1,0,2.17c-.05.11-.42.68-.22.57a2,2,0,0,1-.6-.51c-.44-.55-2.69.07-2.8.75a3.26,3.26,0,0,1-1.08,2.07c-.77.63-1.4.13-2.23-.17a5.71,5.71,0,0,0-4.58.61,12.76,12.76,0,0,1-1.86,1.15c-.61.19-1.37-.49-2-.77a4.86,4.86,0,0,0-4.59.77,7.39,7.39,0,0,1-.88.71c-.38.19.1,0,.13,0a2,2,0,0,1-.59-.22c-.76-.36-1.43-.9-2.2-1.25a6.26,6.26,0,0,0-4.77.15c-.65.24-1.48.8-2.17.69s-1.49-1-2.13-1.45A3.58,3.58,0,0,0,55,33.41a4.79,4.79,0,0,0-1.25.13c-.47.09-1.05.43-1.51.21s-.92-1.33-1.34-1.83A3.05,3.05,0,0,0,48.64,31a2.41,2.41,0,0,1-2.55-2,7.29,7.29,0,0,1-.35-3.18c.19-.82-2.68-.38-2.88.45A6,6,0,0,0,43,28.91a4.26,4.26,0,0,0,1.19,2.67,3.76,3.76,0,0,0,2.47.74c1.33.07,1.59.91,2.29,1.86a2.39,2.39,0,0,0,1.81,1.09c1,.09,2.21-.66,3.08-.35s1.44,1.15,2.23,1.56a4.32,4.32,0,0,0,2.65.37A11.82,11.82,0,0,0,61.47,36a2.53,2.53,0,0,1,2.74.19c1.72,1,3.12,1.7,5.14,1a7.44,7.44,0,0,0,2.19-1.36c.7-.55.09,0,.07-.05a4.68,4.68,0,0,1,.78.38,5.47,5.47,0,0,0,1.5.62c1.83.38,3.57-.52,5.06-1.48.31-.19.73-.56,1.06-.56a11.12,11.12,0,0,1,1.48.61,6.1,6.1,0,0,0,3.06-.09c2-.52,3.9-1.86,4.24-4L86,32c1.4,1.76,4.94.7,6.07-.9,1.45-2.06,0-5.28-1.93-6.52-1-.63-2.48-.72-3.24-1.64s-.31-2.47-1.11-3.48a3.21,3.21,0,0,0-2.63-.9c-.52,0-1.27.15-1.72-.17-.61-.43-.34-1.32-.53-1.93-.77-2.44-4.1-.2-5.1-2.16a3.27,3.27,0,0,0-2.26-2.06,8.85,8.85,0,0,0-3.8.07c-1.25.24-2.59.65-3.64-.31-.54-.5-.8-1.14-1.49-1.49a3.43,3.43,0,0,0-1.79-.27,7.38,7.38,0,0,0-1.86.42c-.65.22-1.45.83-2.14.81s-1.22-.38-1.84-.42a6.06,6.06,0,0,0-2.24.28,11.41,11.41,0,0,0-4,2.75,27.43,27.43,0,0,0-8,12.45C42.58,27.3,45.44,26.92,45.69,26.09Z" style="fill:#ce010f"/><path d="M29.55,52.3l-.48,1.16a.4.4,0,0,0-.06.3.34.34,0,0,0,.1.27.46.46,0,0,0,.26.19.6.6,0,0,0,.35.1,1.61,1.61,0,0,0,.86-.15l.24-.16a1.22,1.22,0,0,0,.32-.36l.48-1.17a.49.49,0,0,0,.06-.29.42.42,0,0,0-.1-.28.61.61,0,0,0-.26-.19.88.88,0,0,0-.35-.1,1.7,1.7,0,0,0-.86.16l-.24.14a.92.92,0,0,0-.32.36Z" style="fill:#eeeee8"/><path d="M23.38,59.92A2.4,2.4,0,0,0,23.8,62" style="fill:#4c5a27"/><path d="M22.28,60a2.94,2.94,0,0,0,0,1.32,2.69,2.69,0,0,0,.55,1.2.94.94,0,0,0,.62.32,1.61,1.61,0,0,0,.86-.15,1.11,1.11,0,0,0,.55-.52.61.61,0,0,0,0-.61,3.12,3.12,0,0,1-.27-.43l.1.19a2.31,2.31,0,0,1-.24-.9v.21a2.36,2.36,0,0,1,.08-.79.59.59,0,0,0-.26-.55,1.13,1.13,0,0,0-.74-.17,1.52,1.52,0,0,0-.82.3l-.19.17a.91.91,0,0,0-.19.41Z" style="fill:#eeeee8"/><path d="M28.74,61.32a2.21,2.21,0,0,0,.71,1.4" style="fill:#4c5a27"/><path d="M27.65,61.61a2.61,2.61,0,0,0,.32,1,1.52,1.52,0,0,0,.22.34,2.85,2.85,0,0,0,.42.43.83.83,0,0,0,.34.13.9.9,0,0,0,.4,0,1.88,1.88,0,0,0,.82-.29.92.92,0,0,0,.38-.56v-.2a.58.58,0,0,0-.24-.32h0l.16.14A2.14,2.14,0,0,1,30,61.6l.09.17a2.2,2.2,0,0,1-.25-.76.42.42,0,0,0-.16-.25.66.66,0,0,0-.29-.17,1.89,1.89,0,0,0-.82,0,1.53,1.53,0,0,0-.72.41l-.13.19a.62.62,0,0,0-.05.4Z" style="fill:#eeeee8"/><path d="M29.23,72.33a3.3,3.3,0,0,0,.2,1.89" style="fill:#4c5a27"/><path d="M28.15,72.5a3.59,3.59,0,0,0,.19,2c.06.15.26.19.4.21a2.17,2.17,0,0,0,.8-.09,2.31,2.31,0,0,0,.74-.32c.09-.08.3-.24.24-.38a3.3,3.3,0,0,1-.25-1.52v.12a1.49,1.49,0,0,1,.05-.36.15.15,0,0,0,0-.18.3.3,0,0,0-.17-.12,1.65,1.65,0,0,0-.7,0,2.68,2.68,0,0,0-.83.26l-.2.13a.61.61,0,0,0-.23.25Z" style="fill:#eeeee8"/><path d="M33,66.71v.94" style="fill:#4c5a27"/><path d="M31.88,67V68a.21.21,0,0,0,.14.15.47.47,0,0,0,.26.08,1.21,1.21,0,0,0,.38,0,2.14,2.14,0,0,0,.43-.07l.28-.1a2,2,0,0,0,.45-.24l.14-.14a.27.27,0,0,0,.09-.27v-.93a.21.21,0,0,0-.14-.15.62.62,0,0,0-.26-.09h-.38a2,2,0,0,0-.43.08l-.28.09a1.79,1.79,0,0,0-.45.25l-.14.13A.28.28,0,0,0,31.88,67Z" style="fill:#eeeee8"/><path d="M37.42,62v1.41" style="fill:#4c5a27"/><path d="M36.32,62.13v1.4a.36.36,0,0,0,0,.27.32.32,0,0,0,.2.21.57.57,0,0,0,.33.11.9.9,0,0,0,.4,0,1.62,1.62,0,0,0,.82-.29l.19-.16a.75.75,0,0,0,.2-.37V61.9a.37.37,0,0,0,0-.27.36.36,0,0,0-.19-.21,1,1,0,0,0-.33-.11,1.34,1.34,0,0,0-.4,0,1.59,1.59,0,0,0-.82.29l-.2.16A.75.75,0,0,0,36.32,62.13Z" style="fill:#eeeee8"/><path d="M44.21,61.79v.94" style="fill:#4c5a27"/><path d="M43.13,62.08V63a.17.17,0,0,0,.13.14.5.5,0,0,0,.27.08,1.15,1.15,0,0,0,.37,0,2.17,2.17,0,0,0,.43-.08l.28-.09a2,2,0,0,0,.45-.24l.15-.14a.31.31,0,0,0,.09-.26v-.93a.21.21,0,0,0-.14-.15.79.79,0,0,0-.26-.08h-.38a1.94,1.94,0,0,0-.42.07l-.29.09a2.46,2.46,0,0,0-.45.25l-.14.13a.26.26,0,0,0-.09.26Z" style="fill:#eeeee8"/><path d="M47.08,56a2.22,2.22,0,0,0,.34,2.15" style="fill:#4c5a27"/><path d="M46,56.12a2.39,2.39,0,0,0,.4,2.37c.1.13.45.13.57.13a2.49,2.49,0,0,0,.85-.18,1.37,1.37,0,0,0,.6-.38l.08-.13a.2.2,0,0,0-.06-.23.64.64,0,0,1-.1-.13l.07.1A2.21,2.21,0,0,1,48,56.28v.12a2.63,2.63,0,0,1,.13-.62c.06-.15-.07-.25-.19-.3a1.42,1.42,0,0,0-.71,0,2.54,2.54,0,0,0-.82.26,1,1,0,0,0-.43.4Z" style="fill:#eeeee8"/><path d="M47.89,52.61l.47.47a.44.44,0,0,0,.25.14.77.77,0,0,0,.34.07,1.48,1.48,0,0,0,.42,0,1.64,1.64,0,0,0,.43-.13L50,53a1.08,1.08,0,0,0,.33-.31l.08-.16a.38.38,0,0,0-.08-.3l-.47-.47a.52.52,0,0,0-.25-.14.83.83,0,0,0-.34-.07,1.5,1.5,0,0,0-.86.13l-.24.13a1.13,1.13,0,0,0-.34.31l-.07.16a.3.3,0,0,0,.08.3Z" style="fill:#eeeee8"/><path d="M41.16,58.74a1,1,0,0,0-.22.94" style="fill:#4c5a27"/><path d="M40.18,58.82a1.4,1.4,0,0,0-.32.55,1,1,0,0,0,0,.6.14.14,0,0,0,.12.1.57.57,0,0,0,.26,0,1.09,1.09,0,0,0,.36,0A3,3,0,0,0,41,60l.28-.09a2.11,2.11,0,0,0,.46-.21l.15-.11a.24.24,0,0,0,.11-.21A.81.81,0,0,1,42,59h0a1.09,1.09,0,0,1,.21-.48l-.09.11h0a.18.18,0,0,0,.1-.16.09.09,0,0,0,0-.12A.46.46,0,0,0,42,58.3a.92.92,0,0,0-.33,0,3.41,3.41,0,0,0-.84.19l-.25.1a1.65,1.65,0,0,0-.36.22Z" style="fill:#eeeee8"/><path d="M37.9,72.1a2.54,2.54,0,0,0,.2,1.65" style="fill:#4c5a27"/><path d="M36.8,72.22A3.05,3.05,0,0,0,37,74a.34.34,0,0,0,.16.21.42.42,0,0,0,.28.14A1.87,1.87,0,0,0,39,74l.13-.17a.53.53,0,0,0,.07-.35,2.64,2.64,0,0,1-.26-1v.17A2.39,2.39,0,0,1,39,72a.43.43,0,0,0-.24-.44,1.2,1.2,0,0,0-.72-.11,1.68,1.68,0,0,0-.82.28.9.9,0,0,0-.41.51Z" style="fill:#eeeee8"/><path d="M40.69,67.65a1.36,1.36,0,0,0,.48,1.16" style="fill:#4c5a27"/><path d="M39.59,67.73a2.26,2.26,0,0,0,0,.52,1,1,0,0,0,.09.34,2,2,0,0,0,.24.46,2.79,2.79,0,0,0,.38.39.83.83,0,0,0,.34.13.9.9,0,0,0,.4,0,1.34,1.34,0,0,0,.44-.1,1.16,1.16,0,0,0,.38-.2.84.84,0,0,0,.38-.57v-.21a.63.63,0,0,0-.25-.33h0l.16.15a1.14,1.14,0,0,1-.31-.41l.1.19a1.34,1.34,0,0,1-.14-.53h0a.4.4,0,0,0-.06-.3.48.48,0,0,0-.2-.24.83.83,0,0,0-.34-.13.9.9,0,0,0-.4,0,1.52,1.52,0,0,0-.82.3.86.86,0,0,0-.38.57Z" style="fill:#eeeee8"/><path d="M45.09,71.65l.73,2.1" style="fill:#4c5a27"/><path d="M44,71.94l.72,2.1c.17.5.84.59,1.29.46a1.45,1.45,0,0,0,.71-.43.71.71,0,0,0,.17-.61l-.72-2.1c-.17-.51-.84-.59-1.29-.46a1.41,1.41,0,0,0-.71.43A.69.69,0,0,0,44,71.94Z" style="fill:#eeeee8"/><path d="M48.91,66.24a6.07,6.07,0,0,0,.2,2.58" style="fill:#4c5a27"/><path d="M47.82,66.36a7,7,0,0,0,.2,2.76.57.57,0,0,0,.44.34A1.73,1.73,0,0,0,50,69a.59.59,0,0,0,.21-.52A6.24,6.24,0,0,1,50,67v.18a5.57,5.57,0,0,1,0-1c.07-.49-.6-.59-1-.54a1.82,1.82,0,0,0-.82.28c-.16.12-.37.28-.4.5Z" style="fill:#eeeee8"/><path d="M50.34,60.87a.67.67,0,0,0,.23.92.5.5,0,0,0,.2.08" style="fill:#4c5a27"/><path d="M49.32,60.79a1.27,1.27,0,0,0-.13.32.38.38,0,0,0,0,.15,1.1,1.1,0,0,0,.08.48,1.36,1.36,0,0,0,.26.41,1.39,1.39,0,0,0,.27.21,1.51,1.51,0,0,0,.35.14.81.81,0,0,0,.38,0,1.3,1.3,0,0,0,.44,0,1.27,1.27,0,0,0,.4-.17,1,1,0,0,0,.31-.24.56.56,0,0,0,.19-.55l-.08-.17a.84.84,0,0,0-.36-.22h-.11l.21.09a.38.38,0,0,1-.15-.09l.16.13a.68.68,0,0,1-.17-.21l.08.17a.59.59,0,0,1-.07-.29v.19a.45.45,0,0,1,0-.23l-.07.19V61a.45.45,0,0,0,.07-.28.37.37,0,0,0-.1-.26.45.45,0,0,0-.25-.18.73.73,0,0,0-.35-.09,1.7,1.7,0,0,0-.86.16,1.25,1.25,0,0,0-.56.48Z" style="fill:#eeeee8"/><path d="M53.31,54.79l1.42,2.33" style="fill:#4c5a27"/><path d="M52.31,55.26l1.43,2.34a.93.93,0,0,0,.62.31,1.61,1.61,0,0,0,.86-.15c.41-.22.8-.65.51-1.12L54.3,54.31a.94.94,0,0,0-.62-.32,1.56,1.56,0,0,0-.85.15C52.41,54.36,52,54.79,52.31,55.26Z" style="fill:#eeeee8"/><path d="M55.47,62.49a2.7,2.7,0,0,0,.45,2.12" style="fill:#4c5a27"/><path d="M54.37,62.57a3.27,3.27,0,0,0,.55,2.52.94.94,0,0,0,.62.32,1.44,1.44,0,0,0,.86-.15,1.09,1.09,0,0,0,.56-.52.61.61,0,0,0,0-.61,2.5,2.5,0,0,1-.23-.39l.09.19a2.64,2.64,0,0,1-.26-1v.21a3,3,0,0,1,0-.73.59.59,0,0,0-.26-.55,1.25,1.25,0,0,0-.75-.18,1.27,1.27,0,0,0-1.19.89Z" style="fill:#eeeee8"/><path d="M54,71.63V72.8" style="fill:#4c5a27"/><path d="M53,71.92v1.17a.11.11,0,0,0,.12.09.36.36,0,0,0,.25,0h.37a3.29,3.29,0,0,0,.43-.09,2.78,2.78,0,0,0,.74-.29c.11-.07.26-.15.26-.3V71.34a.14.14,0,0,0-.12-.09.53.53,0,0,0-.25,0,2.28,2.28,0,0,0-.37,0,3,3,0,0,0-.43.09,2.78,2.78,0,0,0-.74.29c-.11.07-.26.15-.26.3Z" style="fill:#eeeee8"/><path d="M54.29,77.72v1.41" style="fill:#4c5a27"/><path d="M53.2,78v1.41a.23.23,0,0,0,.15.17.45.45,0,0,0,.27.1,1.15,1.15,0,0,0,.37,0,1.29,1.29,0,0,0,.43-.07,1.9,1.9,0,0,0,.73-.35l.14-.15a.38.38,0,0,0,.09-.29v-1.4a.35.35,0,0,0-.15-.17.52.52,0,0,0-.27-.1,1.21,1.21,0,0,0-.38,0,2,2,0,0,0-.43.07,1.77,1.77,0,0,0-.73.35l-.14.15a.34.34,0,0,0-.08.29Z" style="fill:#eeeee8"/><path d="M48.66,78.19v.94" style="fill:#4c5a27"/><path d="M47.58,78.48v.94a.14.14,0,0,0,.13.1.53.53,0,0,0,.25,0,1.15,1.15,0,0,0,.37,0,3.15,3.15,0,0,0,.42-.09l.29-.09a1.85,1.85,0,0,0,.45-.21l.16-.11a.25.25,0,0,0,.1-.2v-.94a.17.17,0,0,0-.13-.1.53.53,0,0,0-.25,0,2.28,2.28,0,0,0-.37,0,3.15,3.15,0,0,0-.42.09l-.29.09a1.92,1.92,0,0,0-.46.21l-.15.11A.21.21,0,0,0,47.58,78.48Z" style="fill:#eeeee8"/><path d="M45.14,82.41a1.48,1.48,0,0,1-.21,1.18" style="fill:#4c5a27"/><path d="M44,82.7v0a1.54,1.54,0,0,1-.08.57l.07-.2a1.22,1.22,0,0,1-.18.36.52.52,0,0,0-.06.3.38.38,0,0,0,.1.27.46.46,0,0,0,.26.19.74.74,0,0,0,.35.1,1.61,1.61,0,0,0,.86-.15l.24-.15a1.07,1.07,0,0,0,.32-.35,1.51,1.51,0,0,0,.15-.28,2.43,2.43,0,0,0,.14-.48,1.6,1.6,0,0,0,0-.31,4.17,4.17,0,0,0,0-.5.49.49,0,0,0-.17-.25.66.66,0,0,0-.28-.16,1.27,1.27,0,0,0-.39,0,1.62,1.62,0,0,0-.44,0,1.5,1.5,0,0,0-.71.41.66.66,0,0,0-.19.58Z" style="fill:#eeeee8"/><path d="M41.87,77v1.17" style="fill:#4c5a27"/><path d="M40.78,77.31v1.17a.25.25,0,0,0,.14.16.62.62,0,0,0,.27.09h.37a2.24,2.24,0,0,0,1.17-.42l.14-.14A.33.33,0,0,0,43,77.9V76.73a.26.26,0,0,0-.15-.16.62.62,0,0,0-.26-.09,2.41,2.41,0,0,0-.38,0,3,3,0,0,0-.43.07,2.14,2.14,0,0,0-.73.35l-.14.14A.33.33,0,0,0,40.78,77.31Z" style="fill:#eeeee8"/><path d="M38.35,82.88v1.4" style="fill:#4c5a27"/><path d="M37.26,83v1.4a.25.25,0,0,0,0,.24.3.3,0,0,0,.19.19.9.9,0,0,0,.32.09,1.34,1.34,0,0,0,.4,0,1.88,1.88,0,0,0,.82-.29l.2-.15a.66.66,0,0,0,.2-.34v-1.4a.25.25,0,0,0,0-.24.44.44,0,0,0-.19-.19.9.9,0,0,0-.32-.09,1.34,1.34,0,0,0-.4,0,1.84,1.84,0,0,0-.82.29l-.2.15a.75.75,0,0,0-.21.34Z" style="fill:#eeeee8"/><path d="M33.43,76.32v1.87" style="fill:#4c5a27"/><path d="M32.35,76.61v1.87c0,.16.31.22.4.23a2,2,0,0,0,.8-.07,1.85,1.85,0,0,0,.74-.34l.14-.13a.3.3,0,0,0,.09-.27V76c0-.15-.32-.21-.4-.23a2.46,2.46,0,0,0-.81.08,1.94,1.94,0,0,0-.73.33l-.15.14a.3.3,0,0,0-.08.27Z" style="fill:#eeeee8"/><path d="M29.7,82.41a2.5,2.5,0,0,0,.18,1.66" style="fill:#4c5a27"/><path d="M28.62,82.56a2.66,2.66,0,0,0,.18,1.8.22.22,0,0,0,.14.17.54.54,0,0,0,.27.11,1.85,1.85,0,0,0,.81-.06,1.9,1.9,0,0,0,.73-.35l.14-.15a.36.36,0,0,0,.08-.3,2.55,2.55,0,0,1-.25-1.12v.15a2,2,0,0,1,.07-.54.33.33,0,0,0-.22-.37,1.43,1.43,0,0,0-.71-.06,2.33,2.33,0,0,0-.82.27A.84.84,0,0,0,28.62,82.56Z" style="fill:#eeeee8"/><path d="M24.76,75.85v.93" style="fill:#4c5a27"/><path d="M23.67,76v.93a.31.31,0,0,0,0,.28.34.34,0,0,0,.2.22.63.63,0,0,0,.33.12.9.9,0,0,0,.4,0l.3-.06a1.75,1.75,0,0,0,.52-.24l.19-.16a.74.74,0,0,0,.2-.38v-.94a.4.4,0,0,0-.05-.28.47.47,0,0,0-.2-.22.66.66,0,0,0-.33-.12,1.41,1.41,0,0,0-.41,0l-.29.05a1.64,1.64,0,0,0-.52.24l-.2.17a.72.72,0,0,0-.19.38Z" style="fill:#eeeee8"/><path d="M22.19,70.93v1.64" style="fill:#4c5a27"/><path d="M21.1,71.22v1.64c0,.12.34.12.37.12a2.66,2.66,0,0,0,.79-.12,2.65,2.65,0,0,0,.75-.29c.11-.07.26-.15.26-.29V70.64c0-.12-.34-.13-.37-.13a3.43,3.43,0,0,0-.79.12,2.46,2.46,0,0,0-.75.3C21.26,71,21.1,71.07,21.1,71.22Z" style="fill:#eeeee8"/><path d="M25.73,65.53,26,67.88" style="fill:#4c5a27"/><path d="M24.65,65.83l.23,2.34c0,.19.29.32.44.37a1.63,1.63,0,0,0,.82,0,1.51,1.51,0,0,0,.71-.39L27,68a.45.45,0,0,0,.06-.36l-.23-2.35c0-.19-.29-.32-.44-.37a1.63,1.63,0,0,0-.82,0,1.74,1.74,0,0,0-.72.39l-.13.18A.49.49,0,0,0,24.65,65.83Z" style="fill:#eeeee8"/><path d="M18.44,63.66a3,3,0,0,0-.23,1.64" style="fill:#4c5a27"/><path d="M17.35,63.8a3.16,3.16,0,0,0-.23,1.79c0,.18.29.26.42.29a1.71,1.71,0,0,0,.81,0,1.67,1.67,0,0,0,.73-.36A.58.58,0,0,0,19.3,65a1.62,1.62,0,0,1,0-.44v.15a3,3,0,0,1,.26-1.2c.08-.16-.1-.32-.22-.38a1.33,1.33,0,0,0-.71-.07,2.35,2.35,0,0,0-.82.28l-.2.14a.68.68,0,0,0-.22.31Z" style="fill:#eeeee8"/><path d="M23.52,80.79l.75,2.1" style="fill:#4c5a27"/><path d="M22.44,81.08l.74,2.1c.18.5.84.59,1.29.45a1.37,1.37,0,0,0,.71-.42.71.71,0,0,0,.18-.61l-.75-2.1A1,1,0,0,0,23.32,80a1.39,1.39,0,0,0-.71.42.65.65,0,0,0-.17.61Z" style="fill:#eeeee8"/><path d="M26.61,87.82l1.87,2.58" style="fill:#4c5a27"/><path d="M25.52,88.11l1.87,2.58a.48.48,0,0,0,.39.16,2.36,2.36,0,0,0,.79-.11,2.5,2.5,0,0,0,.74-.3c.07,0,.33-.22.26-.33L27.7,87.53a.48.48,0,0,0-.39-.16,2.32,2.32,0,0,0-.79.1,2.83,2.83,0,0,0-.74.31C25.71,87.78,25.45,88,25.52,88.11Z" style="fill:#eeeee8"/><path d="M35.07,87.8v1.64" style="fill:#4c5a27"/><path d="M34,87.92v1.64a.28.28,0,0,0,0,.25.3.3,0,0,0,.19.19,1.19,1.19,0,0,0,.72.11,1.88,1.88,0,0,0,.82-.29l.2-.15a.73.73,0,0,0,.21-.35V87.68a.36.36,0,0,0,0-.25.44.44,0,0,0-.19-.19,1.23,1.23,0,0,0-.73-.11,1.84,1.84,0,0,0-.82.29l-.19.15A.84.84,0,0,0,34,87.92Z" style="fill:#eeeee8"/><path d="M39.12,93.18l.22,2.58" style="fill:#4c5a27"/><path d="M38,93.47,38.25,96c0,.12.33.12.37.12a2.66,2.66,0,0,0,.79-.12,3,3,0,0,0,.75-.29c.1-.06.27-.15.26-.29l-.21-2.58c0-.12-.33-.12-.38-.12a3.43,3.43,0,0,0-.79.12,2.78,2.78,0,0,0-.74.29c-.1.07-.28.15-.27.29Z" style="fill:#eeeee8"/><path d="M32.49,94.13a2.16,2.16,0,0,0,.71,1.4" style="fill:#4c5a27"/><path d="M31.4,94.42a2.1,2.1,0,0,0,.24.77,2.6,2.6,0,0,0,.55.76,1,1,0,0,0,.59.17,1.48,1.48,0,0,0,.42,0,1.33,1.33,0,0,0,.43-.13l.24-.12a1.05,1.05,0,0,0,.34-.29c.08-.13.14-.31,0-.43a2.66,2.66,0,0,1-.42-.52l.08.13a2.29,2.29,0,0,1-.3-.89.26.26,0,0,0-.14-.17.54.54,0,0,0-.27-.11,1.21,1.21,0,0,0-.38,0,2,2,0,0,0-.43.07,1.92,1.92,0,0,0-.73.36l-.14.15a.39.39,0,0,0-.08.31Z" style="fill:#eeeee8"/><path d="M37,99.28l.47,1.17" style="fill:#4c5a27"/><path d="M35.86,99.57l.47,1.17c.06.15.26.19.4.2a1.15,1.15,0,0,0,.37,0,2.14,2.14,0,0,0,.43-.07,2,2,0,0,0,.73-.33l.15-.13a.27.27,0,0,0,.09-.24L38,99c-.06-.15-.26-.19-.4-.2a1.15,1.15,0,0,0-.37,0,2,2,0,0,0-.43.07,2.36,2.36,0,0,0-.74.33l-.14.13a.24.24,0,0,0-.1.24Z" style="fill:#eeeee8"/><path d="M43.28,97.41l-.47.93" style="fill:#4c5a27"/><path d="M42.25,97.33l-.47.94a.33.33,0,0,0-.06.27.33.33,0,0,0,.08.25A.58.58,0,0,0,42,99a.85.85,0,0,0,.35.08,1.79,1.79,0,0,0,.85-.16l.24-.13a1,1,0,0,0,.33-.34l.47-.93a.45.45,0,0,0,.07-.28.38.38,0,0,0-.09-.25.67.67,0,0,0-.25-.16.85.85,0,0,0-.35-.08,1.7,1.7,0,0,0-.86.16l-.24.13a1.15,1.15,0,0,0-.33.33Z" style="fill:#eeeee8"/><path d="M40.22,102.79a3,3,0,0,0,.49,1.64" style="fill:#4c5a27"/><path d="M39.13,103.09a3.38,3.38,0,0,0,.57,1.77A.44.44,0,0,0,40,105a.65.65,0,0,0,.34.07,1.93,1.93,0,0,0,.85-.17,1.13,1.13,0,0,0,.58-.43l.07-.17a.31.31,0,0,0-.08-.3,1.09,1.09,0,0,1-.08-.15l.07.14a3.1,3.1,0,0,1-.4-1.49.29.29,0,0,0-.15-.19.68.68,0,0,0-.27-.13,1.89,1.89,0,0,0-.82,0,1.72,1.72,0,0,0-.72.38l-.14.16a.44.44,0,0,0-.07.33Z" style="fill:#eeeee8"/><path d="M48.22,97.18l-.5,1.63" style="fill:#4c5a27"/><path d="M47.14,97.34,46.65,99c0,.15.06.25.2.3a1.38,1.38,0,0,0,.7,0,2.47,2.47,0,0,0,.82-.27c.16-.09.38-.21.43-.4L49.3,97a.3.3,0,0,0-.2-.3,1.65,1.65,0,0,0-.7,0,3,3,0,0,0-.83.27c-.16.09-.37.21-.43.39Z" style="fill:#eeeee8"/><path d="M44.91,103.26a2.17,2.17,0,0,0-.46,1.41" style="fill:#4c5a27"/><path d="M43.9,103.23a2.63,2.63,0,0,0-.43.83,2.5,2.5,0,0,0-.11.9.29.29,0,0,0,.15.19.47.47,0,0,0,.28.12.81.81,0,0,0,.38,0,1.59,1.59,0,0,0,.43-.06,1.71,1.71,0,0,0,.72-.37l.14-.16a.37.37,0,0,0,.07-.32v.11a2.11,2.11,0,0,1,.19-.92l-.07.17a2.07,2.07,0,0,1,.27-.45.39.39,0,0,0,0-.46.49.49,0,0,0-.24-.14,1,1,0,0,0-.35-.06,1.79,1.79,0,0,0-1.43.6Z" style="fill:#eeeee8"/><path d="M45.39,92a4.06,4.06,0,0,0-.48,2.1" style="fill:#4c5a27"/><path d="M44.35,91.9a4.65,4.65,0,0,0-.54,2.31.39.39,0,0,0,.06.3.38.38,0,0,0,.2.23,1.13,1.13,0,0,0,.74.16,1.55,1.55,0,0,0,.82-.3l.19-.17A.72.72,0,0,0,46,94a4,4,0,0,1,.19-1.42l-.07.21a4.7,4.7,0,0,1,.29-.7.57.57,0,0,0,0-.59,1,1,0,0,0-.61-.3,1.5,1.5,0,0,0-1.42.66Z" style="fill:#eeeee8"/><path d="M42.82,86.86a2.67,2.67,0,0,0,.2,1.65" style="fill:#4c5a27"/><path d="M41.71,86.93a3.35,3.35,0,0,0,0,1,2.57,2.57,0,0,0,.23.82.52.52,0,0,0,.18.29.53.53,0,0,0,.29.19,1.34,1.34,0,0,0,.84,0,1.28,1.28,0,0,0,.7-.44l.13-.21a.82.82,0,0,0,0-.44,2.68,2.68,0,0,1-.25-.92v.22a2.89,2.89,0,0,1,0-.72.66.66,0,0,0-.27-.59,1.18,1.18,0,0,0-.75-.2,1.5,1.5,0,0,0-.82.31l-.18.18a.77.77,0,0,0-.19.43Z" style="fill:#eeeee8"/><path d="M48,87.57A2,2,0,0,0,48.19,89" style="fill:#4c5a27"/><path d="M46.89,87.69a2.6,2.6,0,0,0,0,.88,2.15,2.15,0,0,0,.24.7.28.28,0,0,0,.15.2.47.47,0,0,0,.28.12,1.21,1.21,0,0,0,.38,0,1.59,1.59,0,0,0,.43-.06,1.52,1.52,0,0,0,.72-.38l.14-.16a.41.41,0,0,0,.07-.34,1.93,1.93,0,0,1-.25-1v.16a1.7,1.7,0,0,1,0-.45.4.4,0,0,0-.23-.42.9.9,0,0,0-.32-.09,1.34,1.34,0,0,0-.4,0,2,2,0,0,0-.82.28.9.9,0,0,0-.4.48Z" style="fill:#eeeee8"/><path d="M51.48,92.25v2.81" style="fill:#4c5a27"/><path d="M50.39,92.54v2.81c0,.17.31.26.42.28a1.67,1.67,0,0,0,.8,0,1.92,1.92,0,0,0,.73-.36l.14-.15a.36.36,0,0,0,.08-.3V92c0-.17-.31-.26-.41-.28a1.84,1.84,0,0,0-.81,0,1.92,1.92,0,0,0-.73.36l-.14.15A.38.38,0,0,0,50.39,92.54Z" style="fill:#eeeee8"/><path d="M53.12,87.09V88.5" style="fill:#4c5a27"/><path d="M52,87.39v1.4c0,.12.34.12.37.12a2.66,2.66,0,0,0,.79-.12,3,3,0,0,0,.75-.29c.11-.07.26-.15.26-.29V86.8c0-.11-.34-.11-.37-.11a2.61,2.61,0,0,0-.79.12,2.85,2.85,0,0,0-.75.29C52.18,87.16,52,87.24,52,87.39Z" style="fill:#eeeee8"/><path d="M51.92,81l-.23,1.87" style="fill:#4c5a27"/><path d="M50.83,81.09,50.59,83a.56.56,0,0,0,.26.53,1.19,1.19,0,0,0,.74.16,1.52,1.52,0,0,0,.81-.3.9.9,0,0,0,.39-.56L53,80.91a.58.58,0,0,0-.25-.53,1.21,1.21,0,0,0-.74-.15,1.59,1.59,0,0,0-.82.29A.93.93,0,0,0,50.83,81.09Z" style="fill:#eeeee8"/><path d="M36.9,20.35a17,17,0,0,0-7.47-2.53c-1.27-.16-2.54-.25-3.81-.34-1.46-.1-3-.21-4.05-1.29A14.87,14.87,0,0,0,19,13.79a17.12,17.12,0,0,0-3.56-1.5c-2.25-.75-4.84-1.63-5.77-4-.39-1-3.26-.14-2.9.78.89,2.27,3,3.49,5.25,4.27,1.22.44,2.48.78,3.66,1.33a11.55,11.55,0,0,1,3.22,2.68c1.95,1.92,4.92,1.71,7.45,1.93a17.08,17.08,0,0,1,8.27,2.5c.77.53,3.45-.62,2.3-1.4Z" style="fill:#ce010f"/><path d="M45.75,26.31c2.67-1.37,5.54-2.93,8.59-3.15,3.27-.23,6.15,1.58,9.29,2.15,5.59,1,12.18-.24,16.74,3.9.61.55,3.26-.54,2.72-1-5.32-4.82-13-2.65-19.27-4.58A45.27,45.27,0,0,0,58.75,22a14.62,14.62,0,0,0-4.85,0A34.68,34.68,0,0,0,44,25.8c-.39.2-.85.56-.33.86s1.59-.12,2-.35Z" style="fill:#ce010f"/><path d="M73.08,21.4a36.3,36.3,0,0,0-7.19,3.52c-.27.17-.52.62,0,.73a8.1,8.1,0,0,1,5,3.63c.49.8,3.22-.25,2.9-.78a9.05,9.05,0,0,0-5.57-4.08v.73l.44-.28c-.15.1.18-.1.17-.1l.78-.45c.51-.28,1-.55,1.55-.8l.76-.36h0l.23-.1.36-.15c.55-.23,1.12-.45,1.68-.65.25-.09,1.26-.56.83-.94s-1.44-.06-1.88.09Z" style="fill:#ce010f"/><path d="M64.38,20.07A30.85,30.85,0,0,0,57,23s-.45.27-.36.39l3.59,4.27c.3.37,1.17.11,1.55,0,.11,0,1.56-.52,1.35-.77l-3.63-4.25-.35.39q.39-.22.78-.42l.17-.09.34-.17c.49-.24,1-.45,1.5-.66s-.26.09.13-.05l.35-.14.84-.29.36-.11c-.36.09,0,0,.1,0,.28-.09.56-.16.85-.24s1.42-.36,1.34-.77-1.4,0-1.55,0Z" style="fill:#ce010f"/><path d="M12.63,8.55v4.18l0-.1a.87.87,0,0,1,.61-.33,1,1,0,0,1,.73-.23,10.65,10.65,0,0,0-1.13,0H9.27a2.92,2.92,0,0,0-1.13.22,1.69,1.69,0,0,0-.77.6c-.31.58.26.93.8.93h4.12a4.86,4.86,0,0,0,2-.25,1.78,1.78,0,0,0,1.21-1.31c0-.42,0-.85,0-1.28V8.22a.59.59,0,0,0-.31-.57,1.71,1.71,0,0,0-1-.13,2.78,2.78,0,0,0-1.09.38c-.2.14-.54.38-.54.65Z" style="fill:#ce010f"/><path d="M19.88,13.33v4.84l2.64-1a18,18,0,0,0-5.77,0,3.88,3.88,0,0,0-1.11.35c-.16.08-.51.25-.59.45-.19.5,1,.32,1.16.29h.29a1.75,1.75,0,0,1,.56-.06h2.08l.56.06h.14l.33,0a3.38,3.38,0,0,0,1.69-.23c.3-.12.94-.33.94-.73V12.51c0-.17-.44-.2-.51-.21a4.09,4.09,0,0,0-2.05.55c-.16.11-.34.23-.34.44Z" style="fill:#ce010f"/><path d="M25.7,16.09l2.54,3.32.21-.7-.3.2L28,19h0a5.84,5.84,0,0,1-.53.33c-.39.23-.78.45-1.19.66l-.28.14-.18.09.14-.07a5.65,5.65,0,0,1-.67.29c-.42.18-.84.34-1.27.48s-1.23.61-.81,1a1.17,1.17,0,0,0,.77.19,3.75,3.75,0,0,0,1.13-.24A22.81,22.81,0,0,0,30.73,19c.25-.17.41-.44.21-.7L28.41,15c-.13-.18-.59-.2-.76-.19a3.41,3.41,0,0,0-1.14.23c-.35.15-1.17.55-.81,1Z" style="fill:#ce010f"/><path d="M52.68,19.44a11.81,11.81,0,0,0-3.42,4.67.14.14,0,0,0,0,.2h0c1.19.83,2.38,1.67,3.55,2.52a1.29,1.29,0,0,0,.73.06,5,5,0,0,0,1.13-.26c.16-.06,1.26-.48.88-.76C54.44,25,53.25,24.19,52,23.36l0,.21a11.16,11.16,0,0,1,3.18-4.41c.49-.41-.45-.42-.67-.4a3.94,3.94,0,0,0-1.94.68Z" style="fill:#ce010f"/></g></g></g></g></svg>